<svg width="223" height="324" viewBox="0 0 223 324" fill="none" xmlns="http://www.w3.org/2000/svg">
<g clip-path="url(#clip0_7_1435)">
<path d="M222.449 314.064C222.449 319.1 218.333 323.223 213.288 323.223H9.48116C4.44796 323.223 0.333374 319.1 0.333374 314.064V9.49365C0.333374 4.45719 4.44796 0.333496 9.48116 0.333496H213.288C218.333 0.333496 222.449 4.45719 222.449 9.49365V314.064Z" fill="white" stroke="black" stroke-width="0.666667"/>
<path d="M14.5798 35.27H10.8298V11.3742C9.92702 12.2353 8.73952 13.0964 7.26729 13.9575C5.80896 14.8186 4.49646 15.4645 3.32979 15.895V12.27C5.42702 11.2839 7.26035 10.0895 8.82979 8.68669C10.3992 7.28391 11.5103 5.9228 12.1631 4.60335H14.5798V35.27Z" fill="#DF0000"/>
<path d="M31.1097 43.043C23.87 43.043 22.9033 50.3075 22.9033 50.3075C22.9033 50.3075 21.9367 43.043 14.697 43.043C9.62944 43.043 5.04407 46.3002 5.04407 52.4449C5.04407 60.564 19.7314 68.7287 22.9033 80.6508C25.9216 68.7387 40.7626 60.564 40.7626 52.4449C40.7626 46.3002 36.1773 43.043 31.1097 43.043Z" fill="#DF0000"/>
<path d="M192.002 278.995C199.241 278.995 200.208 271.73 200.208 271.73C200.208 271.73 201.175 278.995 208.414 278.995C213.482 278.995 218.067 275.737 218.067 269.593C218.067 261.474 203.38 253.309 200.208 241.387C197.19 253.299 182.349 261.474 182.349 269.593C182.349 275.737 186.934 278.995 192.002 278.995Z" fill="#DF0000"/>
<path d="M86.3039 8.79443C74.2875 8.79443 72.683 20.8521 72.683 20.8521C72.683 20.8521 71.0786 8.79443 59.0622 8.79443C50.6511 8.79443 43.0403 14.2008 43.0403 24.3998C43.0403 37.8758 67.4183 51.4275 72.683 71.2157C77.6927 51.4441 102.326 37.8758 102.326 24.3998C102.326 14.2008 94.715 8.79443 86.3039 8.79443Z" fill="#DF0000"/>
<path d="M59.0622 314.952C71.0786 314.952 72.6831 302.894 72.6831 302.894C72.6831 302.894 74.2875 314.952 86.3039 314.952C94.715 314.952 102.326 309.546 102.326 299.347C102.326 285.871 77.9478 272.319 72.6831 252.531C67.6734 272.302 43.0403 285.871 43.0403 299.347C43.0403 309.546 50.6511 314.952 59.0622 314.952Z" fill="#DF0000"/>
<path d="M86.3039 95.7744C74.2875 95.7744 72.683 107.832 72.683 107.832C72.683 107.832 71.0786 95.7744 59.0622 95.7744C50.6511 95.7744 43.0403 101.181 43.0403 111.38C43.0403 124.856 67.4183 138.408 72.683 158.196C77.6927 138.424 102.326 124.856 102.326 111.38C102.326 101.181 94.715 95.7744 86.3039 95.7744Z" fill="#DF0000"/>
<path d="M59.0622 225.019C71.0786 225.019 72.6831 212.961 72.6831 212.961C72.6831 212.961 74.2875 225.019 86.3039 225.019C94.715 225.019 102.326 219.612 102.326 209.413C102.326 195.937 77.9478 182.385 72.6831 162.597C67.6734 182.369 43.0403 195.937 43.0403 209.413C43.0403 219.612 50.6511 225.019 59.0622 225.019Z" fill="#DF0000"/>
<path d="M162.942 9.59277C150.926 9.59277 149.321 21.6505 149.321 21.6505C149.321 21.6505 147.717 9.59277 135.7 9.59277C127.289 9.59277 119.678 14.9992 119.678 25.1981C119.678 38.6742 144.056 52.2259 149.321 72.0141C154.331 52.2425 178.964 38.6742 178.964 25.1981C178.964 14.9992 171.353 9.59277 162.942 9.59277Z" fill="#DF0000"/>
<path d="M135.7 315.75C147.717 315.75 149.321 303.693 149.321 303.693C149.321 303.693 150.926 315.75 162.942 315.75C171.353 315.75 178.964 310.344 178.964 300.145C178.964 286.669 154.586 273.117 149.321 253.329C144.311 273.101 119.678 286.669 119.678 300.145C119.678 310.344 127.289 315.75 135.7 315.75Z" fill="#DF0000"/>
<path d="M162.942 96.5728C150.926 96.5728 149.321 108.63 149.321 108.63C149.321 108.63 147.717 96.5728 135.7 96.5728C127.289 96.5728 119.678 101.979 119.678 112.178C119.678 125.654 144.056 139.206 149.321 158.994C154.331 139.222 178.964 125.654 178.964 112.178C178.964 101.979 171.353 96.5728 162.942 96.5728Z" fill="#DF0000"/>
<path d="M135.7 225.817C147.717 225.817 149.321 213.759 149.321 213.759C149.321 213.759 150.926 225.817 162.942 225.817C171.353 225.817 178.964 220.411 178.964 210.212C178.964 196.736 154.586 183.184 149.321 163.396C144.311 183.167 119.678 196.736 119.678 210.212C119.678 220.411 127.289 225.817 135.7 225.817Z" fill="#DF0000"/>
<path d="M124.572 52.3955C112.556 52.3955 110.951 64.4532 110.951 64.4532C110.951 64.4532 109.347 52.3955 97.3304 52.3955C88.9192 52.3955 81.3085 57.8019 81.3085 68.0008C81.3085 81.4769 105.686 95.0286 110.951 114.817C115.961 95.0452 140.594 81.4769 140.594 68.0008C140.594 57.8019 132.983 52.3955 124.572 52.3955Z" fill="#DF0000"/>
<path d="M96.7105 270.814C108.727 270.814 110.331 258.757 110.331 258.757C110.331 258.757 111.936 270.814 123.952 270.814C132.363 270.814 139.974 265.408 139.974 255.209C139.974 241.733 115.596 228.181 110.331 208.393C105.322 228.165 80.6886 241.733 80.6886 255.209C80.6886 265.408 88.2994 270.814 96.7105 270.814Z" fill="#DF0000"/>
<path d="M18.153 19.8843C18.153 16.2732 18.5211 13.3704 19.2572 11.1759C20.0072 8.96761 21.1114 7.26622 22.5697 6.07178C24.0419 4.87733 25.8891 4.28011 28.1114 4.28011C29.7503 4.28011 31.1878 4.61344 32.4239 5.28011C33.66 5.93289 34.6808 6.88428 35.4864 8.13428C36.2919 9.37039 36.9239 10.8843 37.3822 12.6759C37.8405 14.4537 38.0697 16.8565 38.0697 19.8843C38.0697 23.4676 37.7016 26.3634 36.9655 28.5718C36.2294 30.7662 35.1253 32.4676 33.653 33.6759C32.1947 34.8704 30.3475 35.4676 28.1114 35.4676C25.1669 35.4676 22.8544 34.4121 21.1739 32.3009C19.16 29.7593 18.153 25.6204 18.153 19.8843ZM22.0072 19.8843C22.0072 24.8982 22.5905 28.2384 23.7572 29.9051C24.9378 31.5579 26.3891 32.3843 28.1114 32.3843C29.8336 32.3843 31.278 31.5509 32.4447 29.8843C33.6253 28.2176 34.2155 24.8843 34.2155 19.8843C34.2155 14.8565 33.6253 11.5162 32.4447 9.86344C31.278 8.21067 29.8197 7.38428 28.0697 7.38428C26.3475 7.38428 24.9725 8.11344 23.9447 9.57178C22.653 11.4329 22.0072 14.8704 22.0072 19.8843Z" fill="#DF0000"/>
<path d="M207.568 286.413H211.318V310.309C212.22 309.448 213.408 308.587 214.88 307.726C216.339 306.864 217.651 306.219 218.818 305.788V309.413C216.72 310.399 214.887 311.594 213.318 312.996C211.748 314.399 210.637 315.76 209.984 317.08H207.568V286.413Z" fill="#DF0000"/>
<path d="M203.994 301.799C203.994 305.41 203.626 308.313 202.89 310.507C202.14 312.715 201.036 314.417 199.578 315.611C198.106 316.806 196.258 317.403 194.036 317.403C192.397 317.403 190.96 317.07 189.724 316.403C188.487 315.75 187.467 314.799 186.661 313.549C185.856 312.313 185.224 310.799 184.765 309.007C184.307 307.229 184.078 304.827 184.078 301.799C184.078 298.215 184.446 295.32 185.182 293.111C185.918 290.917 187.022 289.215 188.494 288.007C189.953 286.813 191.8 286.215 194.036 286.215C196.981 286.215 199.293 287.271 200.974 289.382C202.987 291.924 203.994 296.063 203.994 301.799ZM200.14 301.799C200.14 296.785 199.557 293.445 198.39 291.778C197.21 290.125 195.758 289.299 194.036 289.299C192.314 289.299 190.869 290.132 189.703 291.799C188.522 293.465 187.932 296.799 187.932 301.799C187.932 306.827 188.522 310.167 189.703 311.82C190.869 313.472 192.328 314.299 194.078 314.299C195.8 314.299 197.175 313.57 198.203 312.111C199.494 310.25 200.14 306.813 200.14 301.799Z" fill="#DF0000"/>
</g>
<defs>
<clipPath id="clip0_7_1435">
<rect width="222.783" height="323.556" fill="white"/>
</clipPath>
</defs>
</svg>
