<svg width="223" height="324" viewBox="0 0 223 324" fill="none" xmlns="http://www.w3.org/2000/svg">
<g clip-path="url(#clip0_7_1503)">
<path d="M222.449 314.064C222.449 319.1 218.333 323.223 213.288 323.223H9.48116C4.44796 323.223 0.333374 319.1 0.333374 314.064V9.49365C0.333374 4.45719 4.44796 0.333496 9.48116 0.333496H213.288C218.333 0.333496 222.449 4.45719 222.449 9.49365V314.064Z" fill="white" stroke="black" stroke-width="0.666667"/>
<path d="M15.9539 34.1226H12.2039V10.2267C11.3012 11.0878 10.1137 11.9489 8.64144 12.8101C7.18311 13.6712 5.87061 14.317 4.70394 14.7476V11.1226C6.80116 10.1364 8.63449 8.942 10.2039 7.53922C11.7734 6.13645 12.8845 4.77534 13.5373 3.45589H15.9539V34.1226Z" fill="black"/>
<path d="M38.6416 65.7946C38.1548 58.3334 23.0588 44.29 22.572 40.7773C22.0853 44.2882 6.98925 58.3316 6.50248 65.7946C6.16254 71.0692 9.9119 73.2559 13.3213 73.2559C17.0127 73.2162 20.0615 68.1051 21.1117 67.1114C21.5985 68.4282 17.8873 79.4003 16.7287 79.4003H28.4173C27.2587 79.4003 23.5476 68.4282 24.0344 67.1114C24.9539 68.0242 27.6492 73.1029 31.8268 73.2559C35.2342 73.254 38.9815 71.0692 38.6416 65.7946Z" fill="black"/>
<path d="M98.8949 52.3742C98.0403 39.2743 71.5358 14.618 70.6812 8.45068C69.8266 14.6148 43.3221 39.2711 42.4675 52.3742C41.8706 61.6348 48.4535 65.4741 54.4395 65.4741C60.9205 65.4044 66.2733 56.4307 68.1173 54.6861C68.9719 56.9981 62.4562 76.262 60.422 76.262H80.944C78.9098 76.262 72.394 56.9981 73.2487 54.6861C74.8631 56.2886 79.5953 65.2055 86.93 65.4741C92.9124 65.4708 99.4918 61.6348 98.8949 52.3742Z" fill="black"/>
<path d="M184.231 258.352C184.717 265.813 199.813 279.857 200.3 283.369C200.787 279.859 215.883 265.815 216.37 258.352C216.71 253.078 212.96 250.891 209.551 250.891C205.859 250.931 202.811 256.042 201.76 257.035C201.274 255.719 204.985 244.746 206.143 244.746H194.455C195.613 244.746 199.325 255.719 198.838 257.035C197.918 256.123 195.223 251.044 191.045 250.891C187.638 250.893 183.891 253.078 184.231 258.352Z" fill="black"/>
<path d="M99.3334 136.284C98.4788 123.184 71.9743 98.5281 71.1197 92.3608C70.265 98.5249 43.7606 123.181 42.906 136.284C42.3091 145.545 48.892 149.384 54.878 149.384C61.359 149.315 66.7118 140.341 68.5558 138.596C69.4104 140.908 62.8946 160.172 60.8605 160.172H81.3824C79.3482 160.172 72.8325 140.908 73.6871 138.596C75.3016 140.199 80.0338 149.116 87.3684 149.384C93.3509 149.381 99.9302 145.545 99.3334 136.284Z" fill="black"/>
<path d="M43.5053 273.533C44.36 286.632 70.8644 311.289 71.7191 317.456C72.5737 311.292 99.0782 286.636 99.9328 273.533C100.53 264.272 93.9468 260.433 87.9608 260.433C81.4797 260.502 76.1269 269.476 74.283 271.221C73.4283 268.909 79.9441 249.645 81.9783 249.645H61.4563C63.4905 249.645 70.0063 268.909 69.1516 271.221C67.5372 269.618 62.8049 260.701 55.4703 260.433C49.4878 260.436 42.9085 264.272 43.5053 273.533Z" fill="black"/>
<path d="M43.0669 191.756C43.9215 204.856 70.4259 229.512 71.2806 235.679C72.1352 229.515 98.6397 204.859 99.4943 191.756C100.091 182.495 93.5083 178.656 87.5223 178.656C81.0413 178.726 75.6884 187.699 73.8445 189.444C72.9899 187.132 79.5056 167.868 81.5398 167.868H61.0178C63.052 167.868 69.5678 187.132 68.7131 189.444C67.0987 187.841 62.3665 178.924 55.0318 178.656C49.0493 178.659 42.47 182.495 43.0669 191.756Z" fill="black"/>
<path d="M181.518 52.1237C180.663 39.0238 154.159 14.3675 153.304 8.2002C152.45 14.3643 125.945 39.0206 125.091 52.1237C124.494 61.3843 131.077 65.2236 137.063 65.2236C143.544 65.1539 148.896 56.1803 150.74 54.4356C151.595 56.7476 145.079 76.0115 143.045 76.0115H163.567C161.533 76.0115 155.017 56.7476 155.872 54.4356C157.486 56.0382 162.218 64.955 169.553 65.2236C175.535 65.2203 182.115 61.3843 181.518 52.1237Z" fill="black"/>
<path d="M181.956 136.033C181.102 122.933 154.597 98.2772 153.743 92.1099C152.888 98.2739 126.384 122.93 125.529 136.033C124.932 145.294 131.515 149.133 137.501 149.133C143.982 149.064 149.335 140.09 151.179 138.345C152.033 140.657 145.518 159.921 143.484 159.921H164.005C161.971 159.921 155.456 140.657 156.31 138.345C157.925 139.948 162.657 148.865 169.991 149.133C175.974 149.13 182.553 145.294 181.956 136.033Z" fill="black"/>
<path d="M126.128 273.282C126.983 286.382 153.487 311.038 154.342 317.205C155.197 311.041 181.701 286.385 182.556 273.282C183.153 264.021 176.57 260.182 170.584 260.182C164.103 260.252 158.75 269.225 156.906 270.97C156.051 268.658 162.567 249.394 164.601 249.394H144.079C146.114 249.394 152.629 268.658 151.775 270.97C150.16 269.367 145.428 260.45 138.093 260.182C132.111 260.185 125.532 264.021 126.128 273.282Z" fill="black"/>
<path d="M125.69 191.505C126.545 204.605 153.049 229.261 153.904 235.429C154.758 229.265 181.263 204.608 182.117 191.505C182.714 182.245 176.131 178.405 170.145 178.405C163.664 178.475 158.312 187.449 156.468 189.193C155.613 186.881 162.129 167.617 164.163 167.617H143.641C145.675 167.617 152.191 186.881 151.336 189.193C149.722 187.591 144.99 178.674 137.655 178.405C131.673 178.409 125.093 182.245 125.69 191.505Z" fill="black"/>
<path d="M140.417 95.5812C139.562 82.4813 113.057 57.825 112.203 51.6577C111.348 57.8218 84.8437 82.4781 83.9891 95.5812C83.3922 104.842 89.9751 108.681 95.9611 108.681C102.442 108.611 107.795 99.6378 109.639 97.8932C110.494 100.205 103.978 119.469 101.944 119.469H122.466C120.431 119.469 113.916 100.205 114.77 97.8932C116.385 99.4957 121.117 108.413 128.452 108.681C134.434 108.678 141.013 104.842 140.417 95.5812Z" fill="black"/>
<path d="M84.4275 230.701C85.2821 243.801 111.787 268.457 112.641 274.625C113.496 268.46 140 243.804 140.855 230.701C141.452 221.44 134.869 217.601 128.883 217.601C122.402 217.671 117.049 226.644 115.205 228.389C114.35 226.077 120.866 206.813 122.9 206.813H102.378C104.413 206.813 110.928 226.077 110.074 228.389C108.459 226.787 103.727 217.87 96.3924 217.601C90.4099 217.604 83.8306 221.44 84.4275 230.701Z" fill="black"/>
<path d="M29.6082 37.9853C27.3254 37.9853 25.381 37.3641 23.7749 36.1216C22.1688 34.8691 20.9416 33.056 20.0931 30.6822C19.2446 28.2984 18.8204 25.4196 18.8204 22.0459C18.8204 18.6923 19.2446 15.8287 20.0931 13.455C20.9517 11.0711 22.184 9.25295 23.7901 8.00043C25.4062 6.7378 27.3456 6.10649 29.6082 6.10649C31.8709 6.10649 33.8052 6.7378 35.4113 8.00043C37.0274 9.25295 38.2598 11.0711 39.1082 13.455C39.9668 15.8287 40.3961 18.6923 40.3961 22.0459C40.3961 25.4196 39.9719 28.2984 39.1234 30.6822C38.2749 33.056 37.0476 34.8691 35.4416 36.1216C33.8355 37.3641 31.8911 37.9853 29.6082 37.9853ZM29.6082 34.6519C31.8709 34.6519 33.6284 33.561 34.881 31.3792C36.1335 29.1974 36.7598 26.0863 36.7598 22.0459C36.7598 19.359 36.4719 17.0711 35.8961 15.1822C35.3305 13.2934 34.5123 11.854 33.4416 10.8641C32.381 9.87417 31.1032 9.37922 29.6082 9.37922C27.3658 9.37922 25.6133 10.4853 24.3507 12.6974C23.088 14.8994 22.4567 18.0156 22.4567 22.0459C22.4567 24.7328 22.7395 27.0156 23.3052 28.8944C23.8709 30.7732 24.684 32.2024 25.7446 33.1822C26.8153 34.162 28.1032 34.6519 29.6082 34.6519Z" fill="black"/>
<path d="M206.553 289.777H210.303V313.673C211.206 312.812 212.393 311.95 213.866 311.089C215.324 310.228 216.636 309.582 217.803 309.152V312.777C215.706 313.763 213.872 314.957 212.303 316.36C210.734 317.763 209.622 319.124 208.97 320.444H206.553V289.777Z" fill="black"/>
<path d="M192.899 285.914C195.182 285.914 197.126 286.535 198.732 287.778C200.338 289.03 201.565 290.843 202.414 293.217C203.262 295.601 203.687 298.48 203.687 301.854C203.687 305.207 203.262 308.071 202.414 310.444C201.555 312.828 200.323 314.646 198.717 315.899C197.101 317.162 195.161 317.793 192.899 317.793C190.636 317.793 188.702 317.162 187.096 315.899C185.48 314.646 184.247 312.828 183.399 310.444C182.54 308.071 182.111 305.207 182.111 301.854C182.111 298.48 182.535 295.601 183.384 293.217C184.232 290.843 185.459 289.03 187.065 287.778C188.671 286.535 190.616 285.914 192.899 285.914ZM192.899 289.247C190.636 289.247 188.879 290.338 187.626 292.52C186.373 294.702 185.747 297.813 185.747 301.854C185.747 304.54 186.035 306.828 186.611 308.717C187.176 310.606 187.995 312.045 189.065 313.035C190.126 314.025 191.404 314.52 192.899 314.52C195.141 314.52 196.894 313.414 198.156 311.202C199.419 309 200.05 305.884 200.05 301.854C200.05 299.167 199.767 296.884 199.202 295.005C198.636 293.126 197.823 291.697 196.762 290.717C195.692 289.737 194.404 289.247 192.899 289.247Z" fill="black"/>
</g>
<defs>
<clipPath id="clip0_7_1503">
<rect width="222.783" height="323.556" fill="white"/>
</clipPath>
</defs>
</svg>
