<svg width="223" height="324" viewBox="0 0 223 324" fill="none" xmlns="http://www.w3.org/2000/svg">
<g clip-path="url(#clip0_7_1958)">
<path d="M222.449 314.064C222.449 319.1 218.333 323.223 213.288 323.223H9.48116C4.44796 323.223 0.333374 319.1 0.333374 314.064V9.49341C0.333374 4.45695 4.44796 0.333252 9.48116 0.333252H213.288C218.333 0.333252 222.449 4.45695 222.449 9.49341V314.064Z" fill="white" stroke="black" stroke-width="0.666667"/>
<path d="M32.3099 10.002L28.5807 10.2936C28.2474 8.8214 27.7751 7.75195 27.164 7.08529C26.1501 6.01584 24.9001 5.48112 23.414 5.48112C22.2196 5.48112 21.171 5.81445 20.2682 6.48112C19.0876 7.34223 18.1571 8.59917 17.4765 10.252C16.796 11.9047 16.4418 14.2589 16.414 17.3145C17.3168 15.9395 18.421 14.9186 19.7265 14.252C21.0321 13.5853 22.4001 13.252 23.8307 13.252C26.3307 13.252 28.4557 14.1756 30.2057 16.0228C31.9696 17.8561 32.8515 20.2311 32.8515 23.1478C32.8515 25.0645 32.4349 26.8492 31.6015 28.502C30.7821 30.1408 29.6501 31.3978 28.2057 32.2728C26.7612 33.1478 25.1224 33.5853 23.289 33.5853C20.164 33.5853 17.6154 32.4395 15.6432 30.1478C13.671 27.8422 12.6849 24.0506 12.6849 18.7728C12.6849 12.87 13.7751 8.57834 15.9557 5.89779C17.8585 3.56445 20.421 2.39779 23.6432 2.39779C26.046 2.39779 28.0112 3.0714 29.539 4.41862C31.0807 5.76584 32.0043 7.62695 32.3099 10.002ZM16.9974 23.1686C16.9974 24.4603 17.2682 25.6964 17.8099 26.877C18.3654 28.0575 19.1362 28.9603 20.1224 29.5853C21.1085 30.1964 22.1432 30.502 23.2265 30.502C24.8099 30.502 26.171 29.8631 27.3099 28.5853C28.4487 27.3075 29.0182 25.5714 29.0182 23.377C29.0182 21.2658 28.4557 19.6061 27.3307 18.3978C26.2057 17.1756 24.789 16.5645 23.0807 16.5645C21.3862 16.5645 19.9487 17.1756 18.7682 18.3978C17.5876 19.6061 16.9974 21.1964 16.9974 23.1686Z" fill="black"/>
<path d="M27.5879 58.3197C27.5879 58.3197 32.2924 54.556 32.2924 49.3384C32.2924 46.2839 29.5806 41.2129 23.3112 41.2129C17.0417 41.2129 14.3299 46.2859 14.3299 49.3384C14.3299 54.556 19.0345 58.3197 19.0345 58.3197C13.8089 54.249 4.49292 57.0281 4.49292 65.1636C4.49292 69.2362 7.82078 73.7169 13.0463 73.7169C19.3158 73.7169 22.0276 66.873 22.0276 66.873C22.0276 66.873 22.8239 74.6737 18.1787 78.8494H28.4436C23.7985 74.6757 24.5948 66.873 24.5948 66.873C24.5948 66.873 27.3066 73.7169 33.576 73.7169C38.8035 73.7169 42.1294 69.2342 42.1294 65.1636C42.1294 57.0281 32.8134 54.249 27.5879 58.3197Z" fill="black"/>
<path d="M190.589 312.685L194.319 312.393C194.652 313.865 195.124 314.935 195.735 315.601C196.749 316.671 197.999 317.205 199.485 317.205C200.68 317.205 201.728 316.872 202.631 316.205C203.812 315.344 204.742 314.087 205.423 312.435C206.103 310.782 206.457 308.428 206.485 305.372C205.582 306.747 204.478 307.768 203.173 308.435C201.867 309.101 200.499 309.435 199.069 309.435C196.569 309.435 194.444 308.511 192.694 306.664C190.93 304.83 190.048 302.455 190.048 299.539C190.048 297.622 190.464 295.837 191.298 294.185C192.117 292.546 193.249 291.289 194.694 290.414C196.138 289.539 197.777 289.101 199.61 289.101C202.735 289.101 205.284 290.247 207.256 292.539C209.228 294.844 210.214 298.636 210.214 303.914C210.214 309.817 209.124 314.108 206.944 316.789C205.041 319.122 202.478 320.289 199.256 320.289C196.853 320.289 194.888 319.615 193.36 318.268C191.819 316.921 190.895 315.06 190.589 312.685ZM205.902 299.518C205.902 298.226 205.631 296.99 205.089 295.81C204.534 294.629 203.763 293.726 202.777 293.101C201.791 292.49 200.756 292.185 199.673 292.185C198.089 292.185 196.728 292.823 195.589 294.101C194.451 295.379 193.881 297.115 193.881 299.31C193.881 301.421 194.444 303.08 195.569 304.289C196.694 305.511 198.11 306.122 199.819 306.122C201.513 306.122 202.951 305.511 204.131 304.289C205.312 303.08 205.902 301.49 205.902 299.518Z" fill="black"/>
<path d="M195.311 264.987C195.311 264.987 190.607 268.751 190.607 273.968C190.607 277.023 193.319 282.094 199.588 282.094C205.858 282.094 208.569 277.021 208.569 273.968C208.569 268.751 203.865 264.987 203.865 264.987C209.09 269.058 218.406 266.279 218.406 258.143C218.406 254.07 215.079 249.59 209.853 249.59C203.584 249.59 200.872 256.434 200.872 256.434C200.872 256.434 200.075 248.633 204.721 244.457H194.456C199.101 248.631 198.305 256.434 198.305 256.434C198.305 256.434 195.593 249.59 189.323 249.59C184.096 249.59 180.77 254.072 180.77 258.143C180.77 266.279 190.086 269.058 195.311 264.987Z" fill="black"/>
<path d="M83.1637 63.3334C83.1637 63.3334 91.1202 56.9682 91.1202 48.144C91.1202 42.9781 86.5339 34.4019 75.9308 34.4019C65.3278 34.4019 60.7415 42.9815 60.7415 48.144C60.7415 56.9682 68.698 63.3334 68.698 63.3334C59.8604 56.4489 44.1049 61.1491 44.1049 74.908C44.1049 81.7958 49.733 89.3737 58.5706 89.3737C69.1737 89.3737 73.76 77.7991 73.76 77.7991C73.76 77.7991 75.1067 90.9918 67.2507 98.0538H84.611C76.755 90.9952 78.1017 77.7991 78.1017 77.7991C78.1017 77.7991 82.688 89.3737 93.2911 89.3737C102.132 89.3737 107.757 81.7924 107.757 74.908C107.757 61.1491 92.0013 56.4489 83.1637 63.3334Z" fill="black"/>
<path d="M68.7578 261.659C68.7578 261.659 60.8013 268.024 60.8013 276.848C60.8013 282.014 65.3876 290.59 75.9907 290.59C86.5937 290.59 91.18 282.011 91.18 276.848C91.18 268.024 83.2235 261.659 83.2235 261.659C92.0611 268.543 107.817 263.843 107.817 250.084C107.817 243.196 102.188 235.618 93.3509 235.618C82.7478 235.618 78.1615 247.193 78.1615 247.193C78.1615 247.193 76.8148 234 84.6708 226.938H67.3105C75.1665 233.997 73.8198 247.193 73.8198 247.193C73.8198 247.193 69.2335 235.618 58.6304 235.618C49.7895 235.618 44.1647 243.2 44.1647 250.084C44.1647 263.843 59.9202 268.543 68.7578 261.659Z" fill="black"/>
<path d="M83.1637 156.268C83.1637 156.268 91.1202 149.902 91.1202 141.078C91.1202 135.912 86.5339 127.336 75.9308 127.336C65.3278 127.336 60.7415 135.916 60.7415 141.078C60.7415 149.902 68.698 156.268 68.698 156.268C59.8604 149.383 44.1049 154.083 44.1049 167.842C44.1049 174.73 49.733 182.308 58.5706 182.308C69.1737 182.308 73.76 170.733 73.76 170.733C73.76 170.733 75.1067 183.926 67.2507 190.988H84.611C76.755 183.929 78.1017 170.733 78.1017 170.733C78.1017 170.733 82.688 182.308 93.2911 182.308C102.132 182.308 107.757 174.727 107.757 167.842C107.757 154.083 92.0013 149.383 83.1637 156.268Z" fill="black"/>
<path d="M153.544 63.1017C153.544 63.1017 161.5 56.7365 161.5 47.9123C161.5 42.7464 156.914 34.1702 146.311 34.1702C135.708 34.1702 131.122 42.7498 131.122 47.9123C131.122 56.7365 139.078 63.1017 139.078 63.1017C130.241 56.2172 114.485 60.9174 114.485 74.6763C114.485 81.5641 120.113 89.142 128.951 89.142C139.554 89.142 144.14 77.5674 144.14 77.5674C144.14 77.5674 145.487 90.7601 137.631 97.8221H154.991C147.135 90.7635 148.482 77.5674 148.482 77.5674C148.482 77.5674 153.068 89.142 163.671 89.142C172.512 89.142 178.137 81.5607 178.137 74.6763C178.137 60.9174 162.381 56.2172 153.544 63.1017Z" fill="black"/>
<path d="M139.138 261.427C139.138 261.427 131.181 267.792 131.181 276.617C131.181 281.782 135.768 290.359 146.371 290.359C156.974 290.359 161.56 281.779 161.56 276.617C161.56 267.792 153.604 261.427 153.604 261.427C162.441 268.312 178.197 263.611 178.197 249.853C178.197 242.965 172.568 235.387 163.731 235.387C153.128 235.387 148.542 246.961 148.542 246.961C148.542 246.961 147.195 233.769 155.051 226.707H137.691C145.547 233.765 144.2 246.961 144.2 246.961C144.2 246.961 139.614 235.387 129.01 235.387C120.17 235.387 114.545 242.968 114.545 249.853C114.545 263.611 130.3 268.312 139.138 261.427Z" fill="black"/>
<path d="M153.544 156.036C153.544 156.036 161.5 149.671 161.5 140.847C161.5 135.681 156.914 127.104 146.311 127.104C135.708 127.104 131.122 135.684 131.122 140.847C131.122 149.671 139.078 156.036 139.078 156.036C130.241 149.152 114.485 153.852 114.485 167.611C114.485 174.498 120.113 182.076 128.951 182.076C139.554 182.076 144.14 170.502 144.14 170.502C144.14 170.502 145.487 183.694 137.631 190.756H154.991C147.135 183.698 148.482 170.502 148.482 170.502C148.482 170.502 153.068 182.076 163.671 182.076C172.512 182.076 178.137 174.495 178.137 167.611C178.137 153.852 162.381 149.152 153.544 156.036Z" fill="black"/>
</g>
<defs>
<clipPath id="clip0_7_1958">
<rect width="222.783" height="323.556" fill="white"/>
</clipPath>
</defs>
</svg>
