<svg width="223" height="324" viewBox="0 0 223 324" fill="none" xmlns="http://www.w3.org/2000/svg">
<g clip-path="url(#clip0_7_2016)">
<path d="M222.449 314.064C222.449 319.1 218.333 323.223 213.288 323.223H9.48116C4.44796 323.223 0.333374 319.1 0.333374 314.064V9.49341C0.333374 4.45695 4.44796 0.333252 9.48116 0.333252H213.288C218.333 0.333252 222.449 4.45695 222.449 9.49341V314.064Z" fill="white" stroke="black" stroke-width="0.666667"/>
<path d="M32.9297 10.6218L29.2006 10.9135C28.8672 9.44127 28.395 8.37183 27.7839 7.70516C26.77 6.63571 25.52 6.10099 24.0339 6.10099C22.8395 6.10099 21.7908 6.43433 20.8881 7.10099C19.7075 7.9621 18.777 9.21905 18.0964 10.8718C17.4158 12.5246 17.0617 14.8788 17.0339 17.9343C17.9367 16.5593 19.0408 15.5385 20.3464 14.8718C21.652 14.2052 23.02 13.8718 24.4506 13.8718C26.9506 13.8718 29.0756 14.7954 30.8256 16.6427C32.5895 18.476 33.4714 20.851 33.4714 23.7677C33.4714 25.6843 33.0547 27.469 32.2214 29.1218C31.402 30.7607 30.27 32.0177 28.8256 32.8927C27.3811 33.7677 25.7422 34.2052 23.9089 34.2052C20.7839 34.2052 18.2353 33.0593 16.2631 30.7677C14.2908 28.4621 13.3047 24.6704 13.3047 19.3927C13.3047 13.4899 14.395 9.19821 16.5756 6.51766C18.4783 4.18433 21.0408 3.01766 24.2631 3.01766C26.6658 3.01766 28.6311 3.69127 30.1589 5.03849C31.7006 6.38571 32.6242 8.24683 32.9297 10.6218ZM17.6172 23.7885C17.6172 25.0802 17.8881 26.3163 18.4297 27.4968C18.9853 28.6774 19.7561 29.5802 20.7422 30.2052C21.7283 30.8163 22.7631 31.1218 23.8464 31.1218C25.4297 31.1218 26.7908 30.4829 27.9297 29.2052C29.0686 27.9274 29.6381 26.1913 29.6381 23.9968C29.6381 21.8857 29.0756 20.226 27.9506 19.0177C26.8256 17.7954 25.4089 17.1843 23.7006 17.1843C22.0061 17.1843 20.5686 17.7954 19.3881 19.0177C18.2075 20.226 17.6172 21.8163 17.6172 23.7885Z" fill="#DF0000"/>
<path d="M31.1097 43.0432C23.87 43.0432 22.9033 50.3078 22.9033 50.3078C22.9033 50.3078 21.9367 43.0432 14.697 43.0432C9.62944 43.0432 5.04407 46.3005 5.04407 52.4452C5.04407 60.5643 19.7314 68.729 22.9033 80.651C25.9216 68.739 40.7626 60.5643 40.7626 52.4452C40.7626 46.3005 36.1773 43.0432 31.1097 43.0432Z" fill="#DF0000"/>
<path d="M190.528 311.416L194.257 311.124C194.59 312.597 195.062 313.666 195.674 314.333C196.687 315.402 197.937 315.937 199.424 315.937C200.618 315.937 201.667 315.604 202.569 314.937C203.75 314.076 204.68 312.819 205.361 311.166C206.042 309.513 206.396 307.159 206.424 304.104C205.521 305.479 204.417 306.499 203.111 307.166C201.805 307.833 200.437 308.166 199.007 308.166C196.507 308.166 194.382 307.242 192.632 305.395C190.868 303.562 189.986 301.187 189.986 298.27C189.986 296.354 190.403 294.569 191.236 292.916C192.055 291.277 193.187 290.02 194.632 289.145C196.076 288.27 197.715 287.833 199.549 287.833C202.674 287.833 205.222 288.979 207.194 291.27C209.167 293.576 210.153 297.367 210.153 302.645C210.153 308.548 209.062 312.84 206.882 315.52C204.979 317.854 202.417 319.02 199.194 319.02C196.792 319.02 194.826 318.347 193.299 316.999C191.757 315.652 190.833 313.791 190.528 311.416ZM205.84 298.249C205.84 296.958 205.569 295.722 205.028 294.541C204.472 293.36 203.701 292.458 202.715 291.833C201.729 291.222 200.694 290.916 199.611 290.916C198.028 290.916 196.667 291.555 195.528 292.833C194.389 294.11 193.819 295.847 193.819 298.041C193.819 300.152 194.382 301.812 195.507 303.02C196.632 304.242 198.049 304.854 199.757 304.854C201.451 304.854 202.889 304.242 204.069 303.02C205.25 301.812 205.84 300.222 205.84 298.249Z" fill="#DF0000"/>
<path d="M192.002 278.995C199.241 278.995 200.208 271.73 200.208 271.73C200.208 271.73 201.175 278.995 208.414 278.995C213.482 278.995 218.067 275.737 218.067 269.593C218.067 261.474 203.38 253.309 200.208 241.387C197.19 253.299 182.349 261.474 182.349 269.593C182.349 275.737 186.934 278.995 192.002 278.995Z" fill="#DF0000"/>
<path d="M90.5705 32.261C78.5541 32.261 76.9496 44.3187 76.9496 44.3187C76.9496 44.3187 75.3452 32.261 63.3288 32.261C54.9177 32.261 47.3069 37.6674 47.3069 47.8663C47.3069 61.3424 71.6849 74.8941 76.9496 94.6823C81.9593 74.9107 106.592 61.3424 106.592 47.8663C106.592 37.6674 98.9816 32.261 90.5705 32.261Z" fill="#DF0000"/>
<path d="M63.3288 287.219C75.3452 287.219 76.9497 275.161 76.9497 275.161C76.9497 275.161 78.5541 287.219 90.5705 287.219C98.9816 287.219 106.592 281.812 106.592 271.613C106.592 258.137 82.2144 244.586 76.9497 224.797C71.94 244.569 47.3069 258.137 47.3069 271.613C47.3069 281.812 54.9177 287.219 63.3288 287.219Z" fill="#DF0000"/>
<path d="M90.5705 127.329C78.5541 127.329 76.9496 139.387 76.9496 139.387C76.9496 139.387 75.3452 127.329 63.3288 127.329C54.9177 127.329 47.3069 132.735 47.3069 142.934C47.3069 156.41 71.6849 169.962 76.9496 189.75C81.9593 169.979 106.592 156.41 106.592 142.934C106.592 132.735 98.9816 127.329 90.5705 127.329Z" fill="#DF0000"/>
<path d="M159.021 31.8198C147.005 31.8198 145.401 43.8775 145.401 43.8775C145.401 43.8775 143.796 31.8198 131.78 31.8198C123.369 31.8198 115.758 37.2262 115.758 47.4251C115.758 60.9012 140.136 74.4529 145.401 94.2411C150.41 74.4695 175.043 60.9012 175.043 47.4251C175.043 37.2262 167.433 31.8198 159.021 31.8198Z" fill="#DF0000"/>
<path d="M131.78 286.778C143.796 286.778 145.401 274.72 145.401 274.72C145.401 274.72 147.005 286.778 159.021 286.778C167.433 286.778 175.043 281.371 175.043 271.172C175.043 257.696 150.665 244.144 145.401 224.356C140.391 244.128 115.758 257.696 115.758 271.172C115.758 281.371 123.369 286.778 131.78 286.778Z" fill="#DF0000"/>
<path d="M159.021 126.887C147.005 126.887 145.401 138.945 145.401 138.945C145.401 138.945 143.796 126.887 131.78 126.887C123.369 126.887 115.758 132.294 115.758 142.493C115.758 155.969 140.136 169.521 145.401 189.309C150.41 169.537 175.043 155.969 175.043 142.493C175.043 132.294 167.433 126.887 159.021 126.887Z" fill="#DF0000"/>
</g>
<defs>
<clipPath id="clip0_7_2016">
<rect width="222.783" height="323.556" fill="white"/>
</clipPath>
</defs>
</svg>
