<svg width="223" height="324" viewBox="0 0 223 324" fill="none" xmlns="http://www.w3.org/2000/svg">
<g clip-path="url(#clip0_7_1929)">
<path d="M222.449 314.064C222.449 319.1 218.333 323.223 213.288 323.223H9.48116C4.44796 323.223 0.333374 319.1 0.333374 314.064V9.49341C0.333374 4.45695 4.44796 0.333252 9.48116 0.333252H213.288C218.333 0.333252 222.449 4.45695 222.449 9.49341V314.064Z" fill="white" stroke="black" stroke-width="0.666667"/>
<path d="M32.6248 10.6218L28.8956 10.9135C28.5623 9.44127 28.0901 8.37183 27.479 7.70516C26.4651 6.63571 25.2151 6.10099 23.729 6.10099C22.5345 6.10099 21.4859 6.43433 20.5831 7.10099C19.4026 7.9621 18.472 9.21905 17.7915 10.8718C17.1109 12.5246 16.7567 14.8788 16.729 17.9343C17.6317 16.5593 18.7359 15.5385 20.0415 14.8718C21.347 14.2052 22.7151 13.8718 24.1456 13.8718C26.6456 13.8718 28.7706 14.7954 30.5206 16.6427C32.2845 18.476 33.1665 20.851 33.1665 23.7677C33.1665 25.6843 32.7498 27.469 31.9165 29.1218C31.097 30.7607 29.9651 32.0177 28.5206 32.8927C27.0762 33.7677 25.4373 34.2052 23.604 34.2052C20.479 34.2052 17.9304 33.0593 15.9581 30.7677C13.9859 28.4621 12.9998 24.6704 12.9998 19.3927C12.9998 13.4899 14.0901 9.19821 16.2706 6.51766C18.1734 4.18433 20.7359 3.01766 23.9581 3.01766C26.3609 3.01766 28.3262 3.69127 29.854 5.03849C31.3956 6.38571 32.3192 8.24683 32.6248 10.6218ZM17.3123 23.7885C17.3123 25.0802 17.5831 26.3163 18.1248 27.4968C18.6804 28.6774 19.4512 29.5802 20.4373 30.2052C21.4234 30.8163 22.4581 31.1218 23.5415 31.1218C25.1248 31.1218 26.4859 30.4829 27.6248 29.2052C28.7637 27.9274 29.3331 26.1913 29.3331 23.9968C29.3331 21.8857 28.7706 20.226 27.6456 19.0177C26.5206 17.7954 25.104 17.1843 23.3956 17.1843C21.7012 17.1843 20.2637 17.7954 19.0831 19.0177C17.9026 20.226 17.3123 21.8163 17.3123 23.7885Z" fill="black"/>
<path d="M38.6417 65.7946C38.1549 58.3334 23.0589 44.29 22.5722 40.7773C22.0854 44.2882 6.98938 58.3316 6.5026 65.7946C6.16267 71.0692 9.91203 73.2559 13.3214 73.2559C17.0128 73.2162 20.0616 68.1051 21.1118 67.1114C21.5986 68.4282 17.8875 79.4003 16.7289 79.4003H28.4174C27.2589 79.4003 23.5477 68.4282 24.0345 67.1114C24.954 68.0242 27.6493 73.1029 31.8269 73.2559C35.2343 73.254 38.9816 71.0692 38.6417 65.7946Z" fill="black"/>
<path d="M103.162 75.8407C102.307 62.7409 75.8024 38.0845 74.9478 31.9172C74.0932 38.0813 47.5887 62.7376 46.7341 75.8407C46.1372 85.1014 52.7201 88.9406 58.7061 88.9406C65.1871 88.8709 70.5399 79.8973 72.3839 78.1527C73.2385 80.4646 66.7228 99.7286 64.6886 99.7286H85.2106C83.1764 99.7286 76.6606 80.4646 77.5153 78.1527C79.1297 79.7552 83.8619 88.6721 91.1966 88.9406C97.1791 88.9374 103.758 85.1014 103.162 75.8407Z" fill="black"/>
<path d="M190.741 313.561L194.47 313.27C194.804 314.742 195.276 315.811 195.887 316.478C196.901 317.547 198.151 318.082 199.637 318.082C200.831 318.082 201.88 317.749 202.783 317.082C203.963 316.221 204.894 314.964 205.575 313.311C206.255 311.659 206.609 309.304 206.637 306.249C205.734 307.624 204.63 308.645 203.325 309.311C202.019 309.978 200.651 310.311 199.22 310.311C196.72 310.311 194.595 309.388 192.845 307.54C191.081 305.707 190.2 303.332 190.2 300.415C190.2 298.499 190.616 296.714 191.45 295.061C192.269 293.422 193.401 292.165 194.845 291.29C196.29 290.415 197.929 289.978 199.762 289.978C202.887 289.978 205.436 291.124 207.408 293.415C209.38 295.721 210.366 299.513 210.366 304.79C210.366 310.693 209.276 314.985 207.095 317.665C205.193 319.999 202.63 321.165 199.408 321.165C197.005 321.165 195.04 320.492 193.512 319.145C191.97 317.797 191.047 315.936 190.741 313.561ZM206.054 300.395C206.054 299.103 205.783 297.867 205.241 296.686C204.686 295.506 203.915 294.603 202.929 293.978C201.943 293.367 200.908 293.061 199.825 293.061C198.241 293.061 196.88 293.7 195.741 294.978C194.602 296.256 194.033 297.992 194.033 300.186C194.033 302.297 194.595 303.957 195.72 305.165C196.845 306.388 198.262 306.999 199.97 306.999C201.665 306.999 203.102 306.388 204.283 305.165C205.463 303.957 206.054 302.367 206.054 300.395Z" fill="black"/>
<path d="M184.231 258.352C184.717 265.813 199.813 279.857 200.3 283.369C200.787 279.859 215.883 265.815 216.37 258.352C216.71 253.078 212.96 250.891 209.551 250.891C205.859 250.931 202.811 256.042 201.76 257.035C201.274 255.719 204.985 244.746 206.143 244.746H194.455C195.613 244.746 199.325 255.719 198.838 257.035C197.918 256.123 195.223 251.044 191.045 250.891C187.638 250.893 183.891 253.078 184.231 258.352Z" fill="black"/>
<path d="M46.7944 248.342C47.649 261.442 74.1535 286.099 75.0081 292.266C75.8628 286.102 102.367 261.445 103.222 248.342C103.819 239.082 97.2358 235.242 91.2498 235.242C84.7688 235.312 79.416 244.286 77.572 246.03C76.7174 243.719 83.2332 224.455 85.2673 224.455H64.7454C66.7796 224.455 73.2953 243.719 72.4407 246.03C70.8262 244.428 66.094 235.511 58.7594 235.242C52.7769 235.246 46.1976 239.082 46.7944 248.342Z" fill="black"/>
<path d="M103.273 168.776C102.419 155.676 75.9143 131.02 75.0596 124.852C74.205 131.016 47.7005 155.673 46.8459 168.776C46.2491 178.036 52.8319 181.876 58.8179 181.876C65.299 181.806 70.6518 172.832 72.4957 171.088C73.3503 173.4 66.8346 192.664 64.8004 192.664H85.3224C83.2882 192.664 76.7724 173.4 77.6271 171.088C79.2415 172.69 83.9738 181.607 91.3084 181.876C97.2909 181.872 103.87 178.036 103.273 168.776Z" fill="black"/>
<path d="M176.077 75.5754C175.223 62.4755 148.718 37.8192 147.864 31.6519C147.009 37.8159 120.505 62.4722 119.65 75.5754C119.053 84.836 125.636 88.6752 131.622 88.6752C138.103 88.6055 143.456 79.6319 145.3 77.8873C146.154 80.1992 139.639 99.4632 137.604 99.4632H158.126C156.092 99.4632 149.577 80.1992 150.431 77.8873C152.046 79.4898 156.778 88.4067 164.112 88.6752C170.095 88.672 176.674 84.836 176.077 75.5754Z" fill="black"/>
<path d="M119.71 248.077C120.565 261.177 147.069 285.833 147.924 292C148.779 285.836 175.283 261.18 176.138 248.077C176.735 238.816 170.152 234.977 164.166 234.977C157.685 235.047 152.332 244.02 150.488 245.765C149.633 243.453 156.149 224.189 158.183 224.189H137.661C139.695 224.189 146.211 243.453 145.357 245.765C143.742 244.163 139.01 235.246 131.675 234.977C125.693 234.98 119.113 238.816 119.71 248.077Z" fill="black"/>
<path d="M176.189 168.51C175.335 155.411 148.83 130.754 147.976 124.587C147.121 130.751 120.616 155.407 119.762 168.51C119.165 177.771 125.748 181.61 131.734 181.61C138.215 181.541 143.568 172.567 145.412 170.822C146.266 173.134 139.75 192.398 137.716 192.398H158.238C156.204 192.398 149.688 173.134 150.543 170.822C152.157 172.425 156.89 181.342 164.224 181.61C170.207 181.607 176.786 177.771 176.189 168.51Z" fill="black"/>
</g>
<defs>
<clipPath id="clip0_7_1929">
<rect width="222.783" height="323.556" fill="white"/>
</clipPath>
</defs>
</svg>
