<svg width="223" height="324" viewBox="0 0 223 324" fill="none" xmlns="http://www.w3.org/2000/svg">
<g clip-path="url(#clip0_7_1867)">
<path d="M222.449 314.064C222.449 319.1 218.333 323.223 213.288 323.223H9.48116C4.44796 323.223 0.333374 319.1 0.333374 314.064V9.49341C0.333374 4.45695 4.44796 0.333252 9.48116 0.333252H213.288C218.333 0.333252 222.449 4.45695 222.449 9.49341V314.064Z" fill="white" stroke="black" stroke-width="0.666667"/>
<path d="M13.7214 7.14266V3.53849H33.4922V6.45516C31.5478 8.5246 29.6172 11.2746 27.7006 14.7052C25.7978 18.1357 24.3256 21.6635 23.2839 25.2885C22.5339 27.844 22.0547 30.6427 21.8464 33.6843H17.9922C18.0339 31.2815 18.5061 28.3788 19.4089 24.976C20.3117 21.5732 21.6033 18.2954 23.2839 15.1427C24.9783 11.976 26.777 9.30933 28.6797 7.14266H13.7214Z" fill="#DF0000"/>
<path d="M31.1097 43.0432C23.87 43.0432 22.9033 50.3078 22.9033 50.3078C22.9033 50.3078 21.9367 43.0432 14.697 43.0432C9.62944 43.0432 5.04407 46.3005 5.04407 52.4452C5.04407 60.5643 19.7314 68.729 22.9033 80.651C25.9216 68.739 40.7626 60.5643 40.7626 52.4452C40.7626 46.3005 36.1773 43.0432 31.1097 43.0432Z" fill="#DF0000"/>
<path d="M209.736 314.895V318.499H189.965V315.583C191.91 313.513 193.84 310.763 195.757 307.333C197.66 303.902 199.132 300.374 200.174 296.749C200.924 294.194 201.403 291.395 201.611 288.354H205.465C205.424 290.756 204.951 293.659 204.049 297.062C203.146 300.465 201.854 303.742 200.174 306.895C198.479 310.062 196.68 312.729 194.778 314.895H209.736Z" fill="#DF0000"/>
<path d="M192.002 278.995C199.241 278.995 200.208 271.73 200.208 271.73C200.208 271.73 201.175 278.995 208.414 278.995C213.482 278.995 218.067 275.737 218.067 269.593C218.067 261.474 203.38 253.309 200.208 241.387C197.19 253.299 182.349 261.474 182.349 269.593C182.349 275.737 186.934 278.995 192.002 278.995Z" fill="#DF0000"/>
<path d="M86.3039 10.9277C74.2875 10.9277 72.683 22.9854 72.683 22.9854C72.683 22.9854 71.0786 10.9277 59.0622 10.9277C50.6511 10.9277 43.0403 16.3341 43.0403 26.5331C43.0403 40.0091 67.4183 53.5608 72.683 73.349C77.6927 53.5774 102.326 40.0091 102.326 26.5331C102.326 16.3341 94.715 10.9277 86.3039 10.9277Z" fill="#DF0000"/>
<path d="M59.0622 308.552C71.0786 308.552 72.6831 296.495 72.6831 296.495C72.6831 296.495 74.2875 308.552 86.3039 308.552C94.715 308.552 102.326 303.146 102.326 292.947C102.326 279.471 77.9478 265.919 72.6831 246.131C67.6734 265.903 43.0403 279.471 43.0403 292.947C43.0403 303.146 50.6511 308.552 59.0622 308.552Z" fill="#DF0000"/>
<path d="M86.3039 135.862C74.2875 135.862 72.683 147.92 72.683 147.92C72.683 147.92 71.0786 135.862 59.0622 135.862C50.6511 135.862 43.0403 141.268 43.0403 151.467C43.0403 164.943 67.4183 178.495 72.683 198.283C77.6927 178.512 102.326 164.943 102.326 151.467C102.326 141.268 94.715 135.862 86.3039 135.862Z" fill="#DF0000"/>
<path d="M163.288 10.4863C151.272 10.4863 149.667 22.544 149.667 22.544C149.667 22.544 148.063 10.4863 136.046 10.4863C127.635 10.4863 120.024 15.8927 120.024 26.0917C120.024 39.5677 144.402 53.1194 149.667 72.9076C154.677 53.136 179.31 39.5677 179.31 26.0917C179.31 15.8927 171.699 10.4863 163.288 10.4863Z" fill="#DF0000"/>
<path d="M136.046 310.244C148.063 310.244 149.667 298.186 149.667 298.186C149.667 298.186 151.272 310.244 163.288 310.244C171.699 310.244 179.31 304.838 179.31 294.639C179.31 281.163 154.932 267.611 149.667 247.823C144.658 267.594 120.024 281.163 120.024 294.639C120.024 304.838 127.635 310.244 136.046 310.244Z" fill="#DF0000"/>
<path d="M163.288 135.421C151.272 135.421 149.667 147.479 149.667 147.479C149.667 147.479 148.063 135.421 136.046 135.421C127.635 135.421 120.024 140.827 120.024 151.026C120.024 164.502 144.402 178.054 149.667 197.842C154.677 178.071 179.31 164.502 179.31 151.026C179.31 140.827 171.699 135.421 163.288 135.421Z" fill="#DF0000"/>
<path d="M125.192 71.0627C113.175 71.0627 111.571 83.1205 111.571 83.1205C111.571 83.1205 109.967 71.0627 97.9501 71.0627C89.539 71.0627 81.9282 76.4691 81.9282 86.6681C81.9282 100.144 106.306 113.696 111.571 133.484C116.581 113.712 141.214 100.144 141.214 86.6681C141.214 76.4691 133.603 71.0627 125.192 71.0627Z" fill="#DF0000"/>
</g>
<defs>
<clipPath id="clip0_7_1867">
<rect width="222.783" height="323.556" fill="white"/>
</clipPath>
</defs>
</svg>
