<svg width="223" height="324" viewBox="0 0 223 324" fill="none" xmlns="http://www.w3.org/2000/svg">
<g clip-path="url(#clip0_7_1673)">
<path d="M222.449 314.064C222.449 319.1 218.333 323.223 213.288 323.223H9.48116C4.44796 323.223 0.333374 319.1 0.333374 314.064V9.49341C0.333374 4.45695 4.44796 0.333252 9.48116 0.333252H213.288C218.333 0.333252 222.449 4.45695 222.449 9.49341V314.064Z" fill="white" stroke="black" stroke-width="0.666667"/>
<path d="M18.0026 14.9885C16.447 14.4191 15.2943 13.6066 14.5443 12.551C13.7943 11.4955 13.4193 10.2316 13.4193 8.75936C13.4193 6.53714 14.2179 4.66908 15.8151 3.15519C17.4123 1.6413 19.5373 0.884358 22.1901 0.884358C24.8568 0.884358 27.0026 1.66214 28.6276 3.21769C30.2526 4.75936 31.0651 6.6413 31.0651 8.86352C31.0651 10.2802 30.6901 11.5163 29.9401 12.5719C29.204 13.6135 28.079 14.4191 26.5651 14.9885C28.4401 15.5996 29.8637 16.5857 30.8359 17.9469C31.822 19.308 32.3151 20.933 32.3151 22.8219C32.3151 25.433 31.3915 27.6274 29.5443 29.4052C27.697 31.183 25.2665 32.0719 22.2526 32.0719C19.2387 32.0719 16.8082 31.183 14.9609 29.4052C13.1137 27.6135 12.1901 25.3844 12.1901 22.7177C12.1901 20.7316 12.6901 19.0719 13.6901 17.7385C14.704 16.3913 16.1415 15.4746 18.0026 14.9885ZM17.2526 8.63436C17.2526 10.0788 17.7179 11.2594 18.6484 12.176C19.579 13.0927 20.7873 13.551 22.2734 13.551C23.7179 13.551 24.8984 13.0996 25.8151 12.1969C26.7457 11.2802 27.2109 10.1621 27.2109 8.84269C27.2109 7.46769 26.7318 6.31491 25.7734 5.38436C24.829 4.43991 23.6484 3.96769 22.2318 3.96769C20.8012 3.96769 19.6137 4.42602 18.6693 5.34269C17.7248 6.25936 17.2526 7.35658 17.2526 8.63436ZM16.0443 22.7385C16.0443 23.808 16.2943 24.8427 16.7943 25.8427C17.3082 26.8427 18.0651 27.6205 19.0651 28.176C20.0651 28.7177 21.1415 28.9885 22.2943 28.9885C24.0859 28.9885 25.5651 28.4121 26.7318 27.2594C27.8984 26.1066 28.4818 24.6413 28.4818 22.8635C28.4818 21.058 27.8776 19.5649 26.6693 18.3844C25.4748 17.2038 23.9748 16.6135 22.1693 16.6135C20.4054 16.6135 18.9401 17.1969 17.7734 18.3635C16.6207 19.5302 16.0443 20.9885 16.0443 22.7385Z" fill="#DF0000"/>
<path d="M205.109 309.183C206.664 309.752 207.817 310.565 208.567 311.62C209.317 312.676 209.692 313.94 209.692 315.412C209.692 317.634 208.893 319.502 207.296 321.016C205.699 322.53 203.574 323.287 200.921 323.287C198.255 323.287 196.109 322.509 194.484 320.953C192.859 319.412 192.046 317.53 192.046 315.308C192.046 313.891 192.421 312.655 193.171 311.599C193.907 310.558 195.032 309.752 196.546 309.183C194.671 308.572 193.248 307.585 192.275 306.224C191.289 304.863 190.796 303.238 190.796 301.349C190.796 298.738 191.72 296.544 193.567 294.766C195.414 292.988 197.845 292.099 200.859 292.099C203.873 292.099 206.303 292.988 208.15 294.766C209.998 296.558 210.921 298.787 210.921 301.453C210.921 303.44 210.421 305.099 209.421 306.433C208.407 307.78 206.97 308.697 205.109 309.183ZM205.859 315.537C205.859 314.092 205.393 312.912 204.463 311.995C203.532 311.078 202.324 310.62 200.838 310.62C199.393 310.62 198.213 311.072 197.296 311.974C196.366 312.891 195.9 314.009 195.9 315.328C195.9 316.703 196.38 317.856 197.338 318.787C198.282 319.731 199.463 320.203 200.88 320.203C202.31 320.203 203.498 319.745 204.442 318.828C205.387 317.912 205.859 316.815 205.859 315.537ZM207.067 301.433C207.067 300.363 206.817 299.328 206.317 298.328C205.803 297.328 205.046 296.551 204.046 295.995C203.046 295.453 201.97 295.183 200.817 295.183C199.025 295.183 197.546 295.759 196.38 296.912C195.213 298.065 194.63 299.53 194.63 301.308C194.63 303.113 195.234 304.606 196.442 305.787C197.637 306.967 199.137 307.558 200.942 307.558C202.706 307.558 204.171 306.974 205.338 305.808C206.491 304.641 207.067 303.183 207.067 301.433Z" fill="#DF0000"/>
<path d="M29.0109 49.6765C24.8421 44.0367 22.6242 38.3049 22.6242 38.3049C22.6242 38.3049 20.4062 44.0367 16.2374 49.6765C12.0666 55.3143 6.87048 58.9816 6.87048 58.9816C6.87048 58.9816 12.0666 62.647 16.2374 68.2887C20.4062 73.9266 22.6242 79.6583 22.6242 79.6583C22.6242 79.6583 24.8421 73.9266 29.0109 68.2887C33.1817 62.647 38.3778 58.9816 38.3778 58.9816C38.3778 58.9816 33.1817 55.3143 29.0109 49.6765Z" fill="#DF0000"/>
<path d="M207.215 255.366C203.046 249.726 200.828 243.995 200.828 243.995C200.828 243.995 198.61 249.726 194.441 255.366C190.27 261.004 185.074 264.671 185.074 264.671C185.074 264.671 190.27 268.337 194.441 273.978C198.61 279.616 200.828 285.348 200.828 285.348C200.828 285.348 203.046 279.616 207.215 273.978C211.385 268.337 216.582 264.671 216.582 264.671C216.582 264.671 211.385 261.004 207.215 255.366Z" fill="#DF0000"/>
<path d="M160.165 241.855C152.859 231.971 148.972 221.927 148.972 221.927C148.972 221.927 145.085 231.971 137.779 241.855C130.469 251.736 121.363 258.163 121.363 258.163C121.363 258.163 130.469 264.586 137.779 274.473C145.085 284.354 148.972 294.399 148.972 294.399C148.972 294.399 152.859 284.354 160.165 274.473C167.474 264.586 176.58 258.163 176.58 258.163C176.58 258.163 167.474 251.736 160.165 241.855Z" fill="#DF0000"/>
<path d="M160.165 49.3186C152.859 39.4348 148.972 29.3899 148.972 29.3899C148.972 29.3899 145.085 39.4348 137.779 49.3186C130.469 59.199 121.363 65.626 121.363 65.626C121.363 65.626 130.469 72.0495 137.779 81.9368C145.085 91.8172 148.972 101.862 148.972 101.862C148.972 101.862 152.859 91.8172 160.165 81.9368C167.474 72.0495 176.58 65.626 176.58 65.626C176.58 65.626 167.474 59.199 160.165 49.3186Z" fill="#DF0000"/>
<path d="M160.165 144.386C152.859 134.503 148.972 124.458 148.972 124.458C148.972 124.458 145.085 134.503 137.779 144.386C130.469 154.267 121.363 160.694 121.363 160.694C121.363 160.694 130.469 167.117 137.779 177.005C145.085 186.885 148.972 196.93 148.972 196.93C148.972 196.93 152.859 186.885 160.165 177.005C167.474 167.117 176.58 160.694 176.58 160.694C176.58 160.694 167.474 154.267 160.165 144.386Z" fill="#DF0000"/>
<path d="M83.7442 242.013C76.4383 232.129 72.5513 222.084 72.5513 222.084C72.5513 222.084 68.6643 232.129 61.3584 242.013C54.0491 251.893 44.9429 258.32 44.9429 258.32C44.9429 258.32 54.0491 264.744 61.3584 274.631C68.6643 284.511 72.5513 294.556 72.5513 294.556C72.5513 294.556 76.4383 284.511 83.7442 274.631C91.0535 264.744 100.16 258.32 100.16 258.32C100.16 258.32 91.0535 251.893 83.7442 242.013Z" fill="#DF0000"/>
<path d="M83.7442 49.4761C76.4383 39.5923 72.5513 29.5474 72.5513 29.5474C72.5513 29.5474 68.6643 39.5923 61.3584 49.4761C54.0491 59.3564 44.9429 65.7834 44.9429 65.7834C44.9429 65.7834 54.0491 72.207 61.3584 82.0943C68.6643 91.9746 72.5513 102.02 72.5513 102.02C72.5513 102.02 76.4383 91.9746 83.7442 82.0943C91.0535 72.207 100.16 65.7834 100.16 65.7834C100.16 65.7834 91.0535 59.3564 83.7442 49.4761Z" fill="#DF0000"/>
<path d="M83.7442 144.544C76.4383 134.66 72.5513 124.615 72.5513 124.615C72.5513 124.615 68.6643 134.66 61.3584 144.544C54.0491 154.424 44.9429 160.851 44.9429 160.851C44.9429 160.851 54.0491 167.275 61.3584 177.162C68.6643 187.042 72.5513 197.087 72.5513 197.087C72.5513 197.087 76.4383 187.042 83.7442 177.162C91.0535 167.275 100.16 160.851 100.16 160.851C100.16 160.851 91.0535 154.424 83.7442 144.544Z" fill="#DF0000"/>
<path d="M122.144 97.7429C114.838 87.8591 110.951 77.8142 110.951 77.8142C110.951 77.8142 107.064 87.8591 99.7583 97.7429C92.449 107.623 83.3428 114.05 83.3428 114.05C83.3428 114.05 92.449 120.474 99.7583 130.361C107.064 140.241 110.951 150.286 110.951 150.286C110.951 150.286 114.838 140.241 122.144 130.361C129.453 120.474 138.56 114.05 138.56 114.05C138.56 114.05 129.453 107.623 122.144 97.7429Z" fill="#DF0000"/>
<path d="M122.144 192.924C114.838 183.04 110.951 172.996 110.951 172.996C110.951 172.996 107.064 183.04 99.7583 192.924C92.449 202.805 83.3428 209.232 83.3428 209.232C83.3428 209.232 92.449 215.655 99.7583 225.542C107.064 235.423 110.951 245.468 110.951 245.468C110.951 245.468 114.838 235.423 122.144 225.542C129.453 215.655 138.56 209.232 138.56 209.232C138.56 209.232 129.453 202.805 122.144 192.924Z" fill="#DF0000"/>
</g>
<defs>
<clipPath id="clip0_7_1673">
<rect width="222.783" height="323.556" fill="white"/>
</clipPath>
</defs>
</svg>
