<svg width="223" height="324" viewBox="0 0 223 324" fill="none" xmlns="http://www.w3.org/2000/svg">
<g clip-path="url(#clip0_7_1772)">
<path d="M222.449 314.064C222.449 319.1 218.333 323.223 213.288 323.223H9.48116C4.44796 323.223 0.333374 319.1 0.333374 314.064V9.49341C0.333374 4.45695 4.44796 0.333252 9.48116 0.333252H213.288C218.333 0.333252 222.449 4.45695 222.449 9.49341V314.064Z" fill="white" stroke="black" stroke-width="0.666667"/>
<path d="M18.9373 17.1218C17.3817 16.5524 16.229 15.7399 15.479 14.6843C14.729 13.6288 14.354 12.3649 14.354 10.8927C14.354 8.67044 15.1526 6.80238 16.7498 5.28849C18.347 3.7746 20.472 3.01766 23.1248 3.01766C25.7915 3.01766 27.9373 3.79544 29.5623 5.35099C31.1873 6.89266 31.9998 8.7746 31.9998 10.9968C31.9998 12.4135 31.6248 13.6496 30.8748 14.7052C30.1387 15.7468 29.0137 16.5524 27.4998 17.1218C29.3748 17.7329 30.7984 18.719 31.7706 20.0802C32.7567 21.4413 33.2498 23.0663 33.2498 24.9552C33.2498 27.5663 32.3262 29.7607 30.479 31.5385C28.6317 33.3163 26.2012 34.2052 23.1873 34.2052C20.1734 34.2052 17.7429 33.3163 15.8956 31.5385C14.0484 29.7468 13.1248 27.5177 13.1248 24.851C13.1248 22.8649 13.6248 21.2052 14.6248 19.8718C15.6387 18.5246 17.0762 17.6079 18.9373 17.1218ZM18.1873 10.7677C18.1873 12.2121 18.6526 13.3927 19.5831 14.3093C20.5137 15.226 21.722 15.6843 23.2081 15.6843C24.6526 15.6843 25.8331 15.2329 26.7498 14.3302C27.6804 13.4135 28.1456 12.2954 28.1456 10.976C28.1456 9.60099 27.6665 8.44821 26.7081 7.51766C25.7637 6.57321 24.5831 6.10099 23.1665 6.10099C21.7359 6.10099 20.5484 6.55933 19.604 7.47599C18.6595 8.39266 18.1873 9.48988 18.1873 10.7677ZM16.979 24.8718C16.979 25.9413 17.229 26.976 17.729 27.976C18.2429 28.976 18.9998 29.7538 19.9998 30.3093C20.9998 30.851 22.0762 31.1218 23.229 31.1218C25.0206 31.1218 26.4998 30.5454 27.6665 29.3927C28.8331 28.2399 29.4165 26.7746 29.4165 24.9968C29.4165 23.1913 28.8123 21.6982 27.604 20.5177C26.4095 19.3371 24.9095 18.7468 23.104 18.7468C21.3401 18.7468 19.8748 19.3302 18.7081 20.4968C17.5554 21.6635 16.979 23.1218 16.979 24.8718Z" fill="black"/>
<path d="M38.6417 65.7946C38.1549 58.3334 23.0589 44.29 22.5722 40.7773C22.0854 44.2882 6.98938 58.3316 6.5026 65.7946C6.16267 71.0692 9.91203 73.2559 13.3214 73.2559C17.0128 73.2162 20.0616 68.1051 21.1118 67.1114C21.5986 68.4282 17.8875 79.4003 16.7289 79.4003H28.4174C27.2589 79.4003 23.5477 68.4282 24.0345 67.1114C24.954 68.0242 27.6493 73.1029 31.8269 73.2559C35.2343 73.254 38.9816 71.0692 38.6417 65.7946Z" fill="black"/>
<path d="M101.028 69.4408C100.174 56.341 73.6691 31.6846 72.8145 25.5173C71.9599 31.6814 45.4554 56.3377 44.6008 69.4408C44.0039 78.7015 50.5868 82.5407 56.5728 82.5407C63.0538 82.471 68.4066 73.4974 70.2506 71.7528C71.1052 74.0647 64.5895 93.3287 62.5553 93.3287H83.0773C81.0431 93.3287 74.5273 74.0647 75.382 71.7528C76.9964 73.3553 81.7286 82.2722 89.0633 82.5407C95.0457 82.5375 101.625 78.7015 101.028 69.4408Z" fill="black"/>
<path d="M204.429 307.061C205.984 307.631 207.137 308.443 207.887 309.499C208.637 310.554 209.012 311.818 209.012 313.29C209.012 315.513 208.213 317.381 206.616 318.895C205.019 320.409 202.894 321.165 200.241 321.165C197.575 321.165 195.429 320.388 193.804 318.832C192.179 317.29 191.366 315.409 191.366 313.186C191.366 311.77 191.741 310.534 192.491 309.478C193.227 308.436 194.352 307.631 195.866 307.061C193.991 306.45 192.568 305.464 191.595 304.103C190.609 302.742 190.116 301.117 190.116 299.228C190.116 296.617 191.04 294.422 192.887 292.645C194.734 290.867 197.165 289.978 200.179 289.978C203.193 289.978 205.623 290.867 207.47 292.645C209.318 294.436 210.241 296.665 210.241 299.332C210.241 301.318 209.741 302.978 208.741 304.311C207.727 305.659 206.29 306.575 204.429 307.061ZM205.179 313.415C205.179 311.971 204.713 310.79 203.783 309.874C202.852 308.957 201.644 308.499 200.158 308.499C198.713 308.499 197.533 308.95 196.616 309.853C195.686 310.77 195.22 311.888 195.22 313.207C195.22 314.582 195.7 315.735 196.658 316.665C197.602 317.61 198.783 318.082 200.2 318.082C201.63 318.082 202.818 317.624 203.762 316.707C204.706 315.79 205.179 314.693 205.179 313.415ZM206.387 299.311C206.387 298.242 206.137 297.207 205.637 296.207C205.123 295.207 204.366 294.429 203.366 293.874C202.366 293.332 201.29 293.061 200.137 293.061C198.345 293.061 196.866 293.638 195.7 294.79C194.533 295.943 193.95 297.409 193.95 299.186C193.95 300.992 194.554 302.485 195.762 303.665C196.956 304.846 198.456 305.436 200.262 305.436C202.026 305.436 203.491 304.853 204.658 303.686C205.811 302.52 206.387 301.061 206.387 299.311Z" fill="black"/>
<path d="M184.231 258.352C184.717 265.813 199.813 279.857 200.3 283.369C200.787 279.859 215.883 265.815 216.37 258.352C216.71 253.078 212.96 250.891 209.551 250.891C205.859 250.931 202.811 256.042 201.76 257.035C201.274 255.719 204.985 244.746 206.143 244.746H194.455C195.613 244.746 199.325 255.719 198.838 257.035C197.918 256.123 195.223 251.044 191.045 250.891C187.638 250.893 183.891 253.078 184.231 258.352Z" fill="black"/>
<path d="M44.6611 254.742C45.5157 267.842 72.0202 292.498 72.8748 298.666C73.7295 292.502 100.234 267.845 101.089 254.742C101.685 245.482 95.1025 241.642 89.1165 241.642C82.6355 241.712 77.2827 250.686 75.4387 252.43C74.5841 250.118 81.0999 230.854 83.134 230.854H62.6121C64.6463 230.854 71.162 250.118 70.3074 252.43C68.6929 250.828 63.9607 241.911 56.6261 241.642C50.6436 241.646 44.0643 245.482 44.6611 254.742Z" fill="black"/>
<path d="M101.14 168.776C100.285 155.676 73.781 131.02 72.9263 124.852C72.0717 131.016 45.5672 155.673 44.7126 168.776C44.1158 178.036 50.6986 181.876 56.6846 181.876C63.1657 181.806 68.5185 172.832 70.3624 171.088C71.217 173.4 64.7013 192.664 62.6671 192.664H83.1891C81.1549 192.664 74.6391 173.4 75.4938 171.088C77.1082 172.69 81.8405 181.607 89.1751 181.876C95.1576 181.872 101.737 178.036 101.14 168.776Z" fill="black"/>
<path d="M178.211 69.1752C177.356 56.0753 150.852 31.419 149.997 25.2517C149.142 31.4158 122.638 56.0721 121.783 69.1752C121.187 78.4359 127.769 82.2751 133.755 82.2751C140.236 82.2054 145.589 73.2318 147.433 71.4871C148.288 73.7991 141.772 93.063 139.738 93.063H160.26C158.226 93.063 151.71 73.7991 152.565 71.4871C154.179 73.0897 158.911 82.0065 166.246 82.2751C172.228 82.2719 178.808 78.4359 178.211 69.1752Z" fill="black"/>
<path d="M121.844 254.477C122.698 267.577 149.203 292.233 150.057 298.4C150.912 292.236 177.417 267.58 178.271 254.477C178.868 245.216 172.285 241.377 166.299 241.377C159.818 241.447 154.465 250.42 152.621 252.165C151.767 249.853 158.282 230.589 160.317 230.589H139.795C141.829 230.589 148.345 249.853 147.49 252.165C145.876 250.562 141.143 241.646 133.809 241.377C127.826 241.38 121.247 245.216 121.844 254.477Z" fill="black"/>
<path d="M178.323 168.51C177.468 155.411 150.963 130.754 150.109 124.587C149.254 130.751 122.75 155.407 121.895 168.51C121.298 177.771 127.881 181.61 133.867 181.61C140.348 181.541 145.701 172.567 147.545 170.822C148.4 173.134 141.884 192.398 139.85 192.398H160.372C158.337 192.398 151.822 173.134 152.676 170.822C154.291 172.425 159.023 181.342 166.358 181.61C172.34 181.607 178.919 177.771 178.323 168.51Z" fill="black"/>
<path d="M139.54 121.937C138.685 108.837 112.181 84.1805 111.326 78.0132C110.472 84.1773 83.9671 108.834 83.1125 121.937C82.5157 131.197 89.0985 135.037 95.0845 135.037C101.566 134.967 106.918 125.993 108.762 124.249C109.617 126.561 103.101 145.825 101.067 145.825H121.589C119.555 145.825 113.039 126.561 113.894 124.249C115.508 125.851 120.24 134.768 127.575 135.037C133.557 135.033 140.137 131.197 139.54 121.937Z" fill="black"/>
<path d="M82.6743 205.718C83.5289 218.818 110.033 243.474 110.888 249.642C111.743 243.478 138.247 218.821 139.102 205.718C139.699 196.457 133.116 192.618 127.13 192.618C120.649 192.688 115.296 201.662 113.452 203.406C112.597 201.094 119.113 181.83 121.147 181.83H100.625C102.659 181.83 109.175 201.094 108.321 203.406C106.706 201.804 101.974 192.887 94.6392 192.618C88.6568 192.621 82.0774 196.457 82.6743 205.718Z" fill="black"/>
</g>
<defs>
<clipPath id="clip0_7_1772">
<rect width="222.783" height="323.556" fill="white"/>
</clipPath>
</defs>
</svg>
