<svg width="223" height="324" viewBox="0 0 223 324" fill="none" xmlns="http://www.w3.org/2000/svg">
<g clip-path="url(#clip0_7_1603)">
<path d="M222.449 314.064C222.449 319.1 218.333 323.223 213.288 323.223H9.48116C4.44796 323.223 0.333374 319.1 0.333374 314.064V9.49341C0.333374 4.45695 4.44796 0.333252 9.48116 0.333252H213.288C218.333 0.333252 222.449 4.45695 222.449 9.49341V314.064Z" fill="white" stroke="black" stroke-width="0.666667"/>
<path d="M12.7943 24.4885L16.3984 24.1552C16.704 25.8496 17.2873 27.0788 18.1484 27.8427C19.0095 28.6066 20.1137 28.9885 21.4609 28.9885C22.6137 28.9885 23.6207 28.7246 24.4818 28.1969C25.3568 27.6691 26.072 26.9677 26.6276 26.0927C27.1832 25.2038 27.6484 24.0094 28.0234 22.5094C28.3984 21.0094 28.5859 19.4816 28.5859 17.926C28.5859 17.7594 28.579 17.5094 28.5651 17.176C27.8151 18.3705 26.7873 19.3427 25.4818 20.0927C24.1901 20.8288 22.7873 21.1969 21.2734 21.1969C18.7457 21.1969 16.6068 20.2802 14.8568 18.4469C13.1068 16.6135 12.2318 14.1969 12.2318 11.1969C12.2318 8.09964 13.1415 5.60658 14.9609 3.71769C16.7943 1.8288 19.0859 0.884358 21.8359 0.884358C23.822 0.884358 25.6345 1.41908 27.2734 2.48852C28.9262 3.55797 30.1762 5.08575 31.0234 7.07186C31.8845 9.04408 32.3151 11.9052 32.3151 15.6552C32.3151 19.558 31.8915 22.6691 31.0443 24.9885C30.197 27.2941 28.9332 29.051 27.2526 30.2594C25.5859 31.4677 23.6276 32.0719 21.3776 32.0719C18.9887 32.0719 17.0373 31.4121 15.5234 30.0927C14.0095 28.7594 13.0998 26.8913 12.7943 24.4885ZM28.1484 11.0094C28.1484 8.85658 27.572 7.14825 26.4193 5.88436C25.2804 4.62047 23.9054 3.98852 22.2943 3.98852C20.6276 3.98852 19.1762 4.66908 17.9401 6.03019C16.704 7.3913 16.0859 9.15519 16.0859 11.3219C16.0859 13.2663 16.6693 14.8496 17.8359 16.0719C19.0165 17.2802 20.4679 17.8844 22.1901 17.8844C23.9262 17.8844 25.3498 17.2802 26.4609 16.0719C27.5859 14.8496 28.1484 13.1621 28.1484 11.0094Z" fill="#DF0000"/>
<path d="M210.317 299.683L206.713 300.016C206.407 298.322 205.824 297.092 204.963 296.328C204.102 295.565 202.998 295.183 201.65 295.183C200.498 295.183 199.491 295.447 198.63 295.974C197.755 296.502 197.039 297.203 196.484 298.078C195.928 298.967 195.463 300.162 195.088 301.662C194.713 303.162 194.525 304.69 194.525 306.245C194.525 306.412 194.532 306.662 194.546 306.995C195.296 305.801 196.324 304.828 197.63 304.078C198.921 303.342 200.324 302.974 201.838 302.974C204.366 302.974 206.505 303.891 208.255 305.724C210.005 307.558 210.88 309.974 210.88 312.974C210.88 316.072 209.97 318.565 208.15 320.453C206.317 322.342 204.025 323.287 201.275 323.287C199.289 323.287 197.477 322.752 195.838 321.683C194.185 320.613 192.935 319.085 192.088 317.099C191.227 315.127 190.796 312.266 190.796 308.516C190.796 304.613 191.22 301.502 192.067 299.183C192.914 296.877 194.178 295.12 195.859 293.912C197.525 292.703 199.484 292.099 201.734 292.099C204.123 292.099 206.074 292.759 207.588 294.078C209.102 295.412 210.012 297.28 210.317 299.683ZM194.963 313.162C194.963 315.315 195.539 317.023 196.692 318.287C197.831 319.551 199.206 320.183 200.817 320.183C202.484 320.183 203.935 319.502 205.171 318.141C206.407 316.78 207.025 315.016 207.025 312.849C207.025 310.905 206.442 309.322 205.275 308.099C204.095 306.891 202.643 306.287 200.921 306.287C199.185 306.287 197.762 306.891 196.65 308.099C195.525 309.322 194.963 311.009 194.963 313.162Z" fill="#DF0000"/>
<path d="M29.0109 49.6765C24.8421 44.0367 22.6242 38.3049 22.6242 38.3049C22.6242 38.3049 20.4062 44.0367 16.2374 49.6765C12.0666 55.3143 6.87048 58.9816 6.87048 58.9816C6.87048 58.9816 12.0666 62.647 16.2374 68.2887C20.4062 73.9266 22.6242 79.6583 22.6242 79.6583C22.6242 79.6583 24.8421 73.9266 29.0109 68.2887C33.1817 62.647 38.3778 58.9816 38.3778 58.9816C38.3778 58.9816 33.1817 55.3143 29.0109 49.6765Z" fill="#DF0000"/>
<path d="M207.215 255.366C203.046 249.726 200.828 243.995 200.828 243.995C200.828 243.995 198.61 249.726 194.441 255.366C190.27 261.004 185.074 264.671 185.074 264.671C185.074 264.671 190.27 268.337 194.441 273.978C198.61 279.616 200.828 285.348 200.828 285.348C200.828 285.348 203.046 279.616 207.215 273.978C211.385 268.337 216.582 264.671 216.582 264.671C216.582 264.671 211.385 261.004 207.215 255.366Z" fill="#DF0000"/>
<path d="M83.3646 264.912C76.0587 255.029 72.1717 244.984 72.1717 244.984C72.1717 244.984 68.2847 255.029 60.9788 264.912C53.6694 274.793 44.5632 281.22 44.5632 281.22C44.5632 281.22 53.6694 287.643 60.9788 297.531C68.2847 307.411 72.1717 317.456 72.1717 317.456C72.1717 317.456 76.0587 307.411 83.3646 297.531C90.6739 287.643 99.7801 281.22 99.7801 281.22C99.7801 281.22 90.6739 274.793 83.3646 264.912Z" fill="#DF0000"/>
<path d="M83.3646 25.852C76.0587 15.9682 72.1717 5.92334 72.1717 5.92334C72.1717 5.92334 68.2847 15.9682 60.9788 25.852C53.6694 35.7324 44.5632 42.1594 44.5632 42.1594C44.5632 42.1594 53.6694 48.583 60.9788 58.4702C68.2847 68.3506 72.1717 78.3955 72.1717 78.3955C72.1717 78.3955 76.0587 68.3506 83.3646 58.4702C90.6739 48.583 99.7801 42.1594 99.7801 42.1594C99.7801 42.1594 90.6739 35.7324 83.3646 25.852Z" fill="#DF0000"/>
<path d="M83.3646 185.27C76.0587 175.386 72.1717 165.341 72.1717 165.341C72.1717 165.341 68.2847 175.386 60.9788 185.27C53.6694 195.15 44.5632 201.577 44.5632 201.577C44.5632 201.577 53.6694 208 60.9788 217.888C68.2847 227.768 72.1717 237.813 72.1717 237.813C72.1717 237.813 76.0587 227.768 83.3646 217.888C90.6739 208 99.7801 201.577 99.7801 201.577C99.7801 201.577 90.6739 195.15 83.3646 185.27Z" fill="#DF0000"/>
<path d="M83.3646 105.495C76.0587 95.6108 72.1717 85.5659 72.1717 85.5659C72.1717 85.5659 68.2847 95.6108 60.9788 105.495C53.6694 115.375 44.5632 121.802 44.5632 121.802C44.5632 121.802 53.6694 128.226 60.9788 138.113C68.2847 147.993 72.1717 158.038 72.1717 158.038C72.1717 158.038 76.0587 147.993 83.3646 138.113C90.6739 128.226 99.7801 121.802 99.7801 121.802C99.7801 121.802 90.6739 115.375 83.3646 105.495Z" fill="#DF0000"/>
<path d="M161.721 264.912C154.415 255.029 150.528 244.984 150.528 244.984C150.528 244.984 146.641 255.029 139.335 264.912C132.026 274.793 122.919 281.22 122.919 281.22C122.919 281.22 132.026 287.643 139.335 297.531C146.641 307.411 150.528 317.456 150.528 317.456C150.528 317.456 154.415 307.411 161.721 297.531C169.03 287.643 178.136 281.22 178.136 281.22C178.136 281.22 169.03 274.793 161.721 264.912Z" fill="#DF0000"/>
<path d="M161.721 25.852C154.415 15.9682 150.528 5.92334 150.528 5.92334C150.528 5.92334 146.641 15.9682 139.335 25.852C132.026 35.7324 122.919 42.1594 122.919 42.1594C122.919 42.1594 132.026 48.583 139.335 58.4702C146.641 68.3506 150.528 78.3955 150.528 78.3955C150.528 78.3955 154.415 68.3506 161.721 58.4702C169.03 48.583 178.136 42.1594 178.136 42.1594C178.136 42.1594 169.03 35.7324 161.721 25.852Z" fill="#DF0000"/>
<path d="M161.721 185.27C154.415 175.386 150.528 165.341 150.528 165.341C150.528 165.341 146.641 175.386 139.335 185.27C132.026 195.15 122.919 201.577 122.919 201.577C122.919 201.577 132.026 208 139.335 217.888C146.641 227.768 150.528 237.813 150.528 237.813C150.528 237.813 154.415 227.768 161.721 217.888C169.03 208 178.136 201.577 178.136 201.577C178.136 201.577 169.03 195.15 161.721 185.27Z" fill="#DF0000"/>
<path d="M161.721 105.495C154.415 95.6108 150.528 85.5659 150.528 85.5659C150.528 85.5659 146.641 95.6108 139.335 105.495C132.026 115.375 122.919 121.802 122.919 121.802C122.919 121.802 132.026 128.226 139.335 138.113C146.641 147.993 150.528 158.038 150.528 158.038C150.528 158.038 154.415 147.993 161.721 138.113C169.03 128.226 178.136 121.802 178.136 121.802C178.136 121.802 169.03 115.375 161.721 105.495Z" fill="#DF0000"/>
<path d="M122.144 66.1313C114.838 56.2475 110.951 46.2026 110.951 46.2026C110.951 46.2026 107.064 56.2475 99.7583 66.1313C92.449 76.0117 83.3428 82.4387 83.3428 82.4387C83.3428 82.4387 92.449 88.8623 99.7583 98.7495C107.064 108.63 110.951 118.675 110.951 118.675C110.951 118.675 114.838 108.63 122.144 98.7495C129.453 88.8623 138.56 82.4387 138.56 82.4387C138.56 82.4387 129.453 76.0117 122.144 66.1313Z" fill="#DF0000"/>
</g>
<defs>
<clipPath id="clip0_7_1603">
<rect width="222.783" height="323.556" fill="white"/>
</clipPath>
</defs>
</svg>
