<svg width="223" height="324" viewBox="0 0 223 324" fill="none" xmlns="http://www.w3.org/2000/svg">
<g clip-path="url(#clip0_7_1638)">
<path d="M222.449 314.064C222.449 319.1 218.333 323.223 213.288 323.223H9.48116C4.44796 323.223 0.333374 319.1 0.333374 314.064V9.49341C0.333374 4.45695 4.44796 0.333252 9.48116 0.333252H213.288C218.333 0.333252 222.449 4.45695 222.449 9.49341V314.064Z" fill="white" stroke="black" stroke-width="0.666667"/>
<path d="M13.729 26.6218L17.3331 26.2885C17.6387 27.9829 18.222 29.2121 19.0831 29.976C19.9442 30.7399 21.0484 31.1218 22.3956 31.1218C23.5484 31.1218 24.5554 30.8579 25.4165 30.3302C26.2915 29.8024 27.0067 29.101 27.5623 28.226C28.1179 27.3371 28.5831 26.1427 28.9581 24.6427C29.3331 23.1427 29.5206 21.6149 29.5206 20.0593C29.5206 19.8927 29.5137 19.6427 29.4998 19.3093C28.7498 20.5038 27.722 21.476 26.4165 22.226C25.1248 22.9621 23.722 23.3302 22.2081 23.3302C19.6804 23.3302 17.5415 22.4135 15.7915 20.5802C14.0415 18.7468 13.1665 16.3302 13.1665 13.3302C13.1665 10.2329 14.0762 7.73988 15.8956 5.85099C17.729 3.9621 20.0206 3.01766 22.7706 3.01766C24.7567 3.01766 26.5692 3.55238 28.2081 4.62183C29.8609 5.69127 31.1109 7.21905 31.9581 9.20516C32.8192 11.1774 33.2498 14.0385 33.2498 17.7885C33.2498 21.6913 32.8262 24.8024 31.979 27.1218C31.1317 29.4274 29.8679 31.1843 28.1873 32.3927C26.5206 33.601 24.5623 34.2052 22.3123 34.2052C19.9234 34.2052 17.972 33.5454 16.4581 32.226C14.9442 30.8927 14.0345 29.0246 13.729 26.6218ZM29.0831 13.1427C29.0831 10.9899 28.5067 9.28155 27.354 8.01766C26.2151 6.75377 24.8401 6.12183 23.229 6.12183C21.5623 6.12183 20.1109 6.80238 18.8748 8.16349C17.6387 9.5246 17.0206 11.2885 17.0206 13.4552C17.0206 15.3996 17.604 16.9829 18.7706 18.2052C19.9512 19.4135 21.4026 20.0177 23.1248 20.0177C24.8609 20.0177 26.2845 19.4135 27.3956 18.2052C28.5206 16.9829 29.0831 15.2954 29.0831 13.1427Z" fill="black"/>
<path d="M38.6416 65.7946C38.1548 58.3334 23.0588 44.29 22.572 40.7773C22.0853 44.2882 6.98925 58.3316 6.50248 65.7946C6.16254 71.0692 9.9119 73.2559 13.3213 73.2559C17.0127 73.2162 20.0615 68.1051 21.1117 67.1114C21.5985 68.4282 17.8873 79.4003 16.7287 79.4003H28.4173C27.2587 79.4003 23.5476 68.4282 24.0344 67.1114C24.9539 68.0242 27.6492 73.1029 31.8268 73.2559C35.2342 73.254 38.9815 71.0692 38.6416 65.7946Z" fill="black"/>
<path d="M98.8949 52.3742C98.0403 39.2743 71.5358 14.618 70.6812 8.45068C69.8266 14.6148 43.3221 39.2711 42.4675 52.3742C41.8706 61.6348 48.4535 65.4741 54.4395 65.4741C60.9205 65.4044 66.2733 56.4307 68.1173 54.6861C68.9719 56.9981 62.4562 76.262 60.422 76.262H80.944C78.9098 76.262 72.394 56.9981 73.2487 54.6861C74.8631 56.2886 79.5953 65.2055 86.93 65.4741C92.9124 65.4708 99.4918 61.6348 98.8949 52.3742Z" fill="black"/>
<path d="M209.637 297.561L206.033 297.895C205.727 296.2 205.144 294.971 204.283 294.207C203.422 293.443 202.318 293.061 200.97 293.061C199.818 293.061 198.811 293.325 197.95 293.853C197.075 294.381 196.359 295.082 195.804 295.957C195.248 296.846 194.783 298.04 194.408 299.54C194.033 301.04 193.845 302.568 193.845 304.124C193.845 304.29 193.852 304.54 193.866 304.874C194.616 303.679 195.644 302.707 196.95 301.957C198.241 301.221 199.644 300.853 201.158 300.853C203.686 300.853 205.825 301.77 207.575 303.603C209.325 305.436 210.2 307.853 210.2 310.853C210.2 313.95 209.29 316.443 207.47 318.332C205.637 320.221 203.345 321.165 200.595 321.165C198.609 321.165 196.797 320.631 195.158 319.561C193.505 318.492 192.255 316.964 191.408 314.978C190.547 313.006 190.116 310.145 190.116 306.395C190.116 302.492 190.54 299.381 191.387 297.061C192.234 294.756 193.498 292.999 195.179 291.79C196.845 290.582 198.804 289.978 201.054 289.978C203.443 289.978 205.394 290.638 206.908 291.957C208.422 293.29 209.331 295.159 209.637 297.561ZM194.283 311.04C194.283 313.193 194.859 314.902 196.012 316.165C197.151 317.429 198.526 318.061 200.137 318.061C201.804 318.061 203.255 317.381 204.491 316.02C205.727 314.659 206.345 312.895 206.345 310.728C206.345 308.784 205.762 307.2 204.595 305.978C203.415 304.77 201.963 304.165 200.241 304.165C198.505 304.165 197.081 304.77 195.97 305.978C194.845 307.2 194.283 308.888 194.283 311.04Z" fill="black"/>
<path d="M184.231 258.352C184.717 265.813 199.813 279.857 200.3 283.369C200.787 279.859 215.883 265.815 216.37 258.352C216.71 253.078 212.96 250.891 209.551 250.891C205.859 250.931 202.811 256.042 201.76 257.035C201.274 255.719 204.985 244.746 206.143 244.746H194.455C195.613 244.746 199.325 255.719 198.838 257.035C197.918 256.123 195.223 251.044 191.045 250.891C187.638 250.893 183.891 253.078 184.231 258.352Z" fill="black"/>
<path d="M99.3334 136.284C98.4788 123.184 71.9743 98.5279 71.1197 92.3606C70.265 98.5247 43.7606 123.181 42.906 136.284C42.3091 145.545 48.892 149.384 54.878 149.384C61.359 149.314 66.7118 140.341 68.5558 138.596C69.4104 140.908 62.8946 160.172 60.8605 160.172H81.3824C79.3482 160.172 72.8325 140.908 73.6871 138.596C75.3016 140.199 80.0338 149.115 87.3684 149.384C93.3509 149.381 99.9302 145.545 99.3334 136.284Z" fill="black"/>
<path d="M43.5053 273.533C44.36 286.632 70.8644 311.289 71.7191 317.456C72.5737 311.292 99.0782 286.636 99.9328 273.533C100.53 264.272 93.9468 260.433 87.9608 260.433C81.4797 260.502 76.1269 269.476 74.283 271.221C73.4283 268.909 79.9441 249.645 81.9783 249.645H61.4563C63.4905 249.645 70.0063 268.909 69.1516 271.221C67.5372 269.618 62.8049 260.701 55.4703 260.433C49.4878 260.436 42.9085 264.272 43.5053 273.533Z" fill="black"/>
<path d="M43.0669 191.756C43.9215 204.856 70.4259 229.512 71.2806 235.679C72.1352 229.515 98.6397 204.859 99.4943 191.756C100.091 182.495 93.5083 178.656 87.5223 178.656C81.0413 178.726 75.6884 187.699 73.8445 189.444C72.9899 187.132 79.5056 167.868 81.5398 167.868H61.0178C63.052 167.868 69.5678 187.132 68.7131 189.444C67.0987 187.841 62.3665 178.924 55.0318 178.656C49.0493 178.659 42.47 182.495 43.0669 191.756Z" fill="black"/>
<path d="M181.518 52.1235C180.663 39.0236 154.159 14.3673 153.304 8.19995C152.45 14.364 125.945 39.0203 125.091 52.1235C124.494 61.3841 131.077 65.2233 137.063 65.2233C143.544 65.1536 148.896 56.18 150.74 54.4354C151.595 56.7473 145.079 76.0113 143.045 76.0113H163.567C161.533 76.0113 155.017 56.7473 155.872 54.4354C157.486 56.0379 162.218 64.9548 169.553 65.2233C175.535 65.2201 182.115 61.3841 181.518 52.1235Z" fill="black"/>
<path d="M181.956 136.034C181.102 122.934 154.597 98.2774 153.743 92.1101C152.888 98.2742 126.384 122.931 125.529 136.034C124.932 145.294 131.515 149.133 137.501 149.133C143.982 149.064 149.335 140.09 151.179 138.346C152.033 140.657 145.518 159.921 143.484 159.921H164.005C161.971 159.921 155.456 140.657 156.31 138.346C157.925 139.948 162.657 148.865 169.991 149.133C175.974 149.13 182.553 145.294 181.956 136.034Z" fill="black"/>
<path d="M126.128 273.282C126.983 286.382 153.487 311.038 154.342 317.205C155.197 311.041 181.701 286.385 182.556 273.282C183.153 264.021 176.57 260.182 170.584 260.182C164.103 260.252 158.75 269.225 156.906 270.97C156.051 268.658 162.567 249.394 164.601 249.394H144.079C146.114 249.394 152.629 268.658 151.775 270.97C150.16 269.367 145.428 260.45 138.093 260.182C132.111 260.185 125.532 264.021 126.128 273.282Z" fill="black"/>
<path d="M125.69 191.505C126.545 204.605 153.049 229.261 153.904 235.429C154.758 229.265 181.263 204.608 182.117 191.505C182.714 182.245 176.131 178.405 170.145 178.405C163.664 178.475 158.312 187.449 156.468 189.193C155.613 186.881 162.129 167.617 164.163 167.617H143.641C145.675 167.617 152.191 186.881 151.336 189.193C149.722 187.591 144.99 178.674 137.655 178.405C131.673 178.409 125.093 182.245 125.69 191.505Z" fill="black"/>
<path d="M140.417 95.581C139.562 82.4811 113.057 57.8248 112.203 51.6575C111.348 57.8215 84.8437 82.4779 83.9891 95.581C83.3922 104.842 89.9751 108.681 95.9611 108.681C102.442 108.611 107.795 99.6375 109.639 97.8929C110.494 100.205 103.978 119.469 101.944 119.469H122.466C120.431 119.469 113.916 100.205 114.77 97.8929C116.385 99.4954 121.117 108.412 128.452 108.681C134.434 108.678 141.013 104.842 140.417 95.581Z" fill="black"/>
</g>
<defs>
<clipPath id="clip0_7_1638">
<rect width="222.783" height="323.556" fill="white"/>
</clipPath>
</defs>
</svg>
