<svg width="223" height="324" viewBox="0 0 223 324" fill="none" xmlns="http://www.w3.org/2000/svg">
<g clip-path="url(#clip0_7_1351)">
<path d="M222.449 314.064C222.449 319.1 218.333 323.223 213.288 323.223H9.4811C4.4479 323.223 0.333313 319.1 0.333313 314.064V9.49365C0.333313 4.45719 4.4479 0.333496 9.4811 0.333496H213.288C218.333 0.333496 222.449 4.45719 222.449 9.49365V314.064Z" fill="white" stroke="black" stroke-width="0.666667"/>
<path d="M8.26508 33.6846L19.9942 3.1429H24.3484L36.8484 33.6846H32.2442L28.6817 24.4346H15.9109L12.5567 33.6846H8.26508ZM17.0776 21.1429H27.4317L24.2442 12.6846C23.272 10.1151 22.5498 8.00401 22.0776 6.35124C21.6887 8.30957 21.1401 10.254 20.4317 12.1846L17.0776 21.1429Z" fill="#DF0000"/>
<path d="M214.846 288.354L203.117 318.895H198.763L186.263 288.354H190.867L194.43 297.604H207.2L210.555 288.354H214.846ZM206.034 300.895H195.68L198.867 309.354C199.839 311.923 200.562 314.034 201.034 315.687C201.423 313.729 201.971 311.784 202.68 309.854L206.034 300.895Z" fill="#DF0000"/>
<path d="M135.448 118.355C118.649 95.6284 109.712 72.5317 109.712 72.5317C109.712 72.5317 100.774 95.6284 83.9752 118.355C67.1685 141.073 46.2302 155.851 46.2302 155.851C46.2302 155.851 67.1685 170.621 83.9752 193.355C100.774 216.073 109.712 239.17 109.712 239.17C109.712 239.17 118.649 216.073 135.448 193.355C152.254 170.621 173.193 155.851 173.193 155.851C173.193 155.851 152.254 141.073 135.448 118.355Z" fill="url(#paint0_radial_7_1351)"/>
<g filter="url(#filter0_f_7_1351)">
<path d="M103.132 98.5705C103.132 98.5705 111.093 130.797 102.374 142.058C92.5735 154.715 56.5098 153.508 56.5098 153.508C56.5098 153.508 78.8899 141.122 87.0223 131.43C94.7978 122.163 103.132 98.5705 103.132 98.5705Z" fill="url(#paint1_radial_7_1351)"/>
</g>
<path d="M29.0109 49.6762C24.8421 44.0364 22.6242 38.3047 22.6242 38.3047C22.6242 38.3047 20.4062 44.0364 16.2374 49.6762C12.0666 55.3141 6.87048 58.9814 6.87048 58.9814C6.87048 58.9814 12.0666 62.6467 16.2374 68.2885C20.4062 73.9263 22.6242 79.6581 22.6242 79.6581C22.6242 79.6581 24.8421 73.9263 29.0109 68.2885C33.1817 62.6467 38.3778 58.9814 38.3778 58.9814C38.3778 58.9814 33.1817 55.3141 29.0109 49.6762Z" fill="#DF0000"/>
<path d="M207.215 255.366C203.046 249.726 200.828 243.995 200.828 243.995C200.828 243.995 198.61 249.726 194.441 255.366C190.27 261.004 185.074 264.671 185.074 264.671C185.074 264.671 190.27 268.337 194.441 273.978C198.61 279.616 200.828 285.348 200.828 285.348C200.828 285.348 203.046 279.616 207.215 273.978C211.385 268.337 216.582 264.671 216.582 264.671C216.582 264.671 211.385 261.004 207.215 255.366Z" fill="#DF0000"/>
</g>
<defs>
<filter id="filter0_f_7_1351" x="49.9971" y="92.0575" width="62.9718" height="67.9943" filterUnits="userSpaceOnUse" color-interpolation-filters="sRGB">
<feFlood flood-opacity="0" result="BackgroundImageFix"/>
<feBlend mode="normal" in="SourceGraphic" in2="BackgroundImageFix" result="shape"/>
<feGaussianBlur stdDeviation="3.25639" result="effect1_foregroundBlur_7_1351"/>
</filter>
<radialGradient id="paint0_radial_7_1351" cx="0" cy="0" r="1" gradientUnits="userSpaceOnUse" gradientTransform="translate(109.712 122.172) rotate(179.719) scale(71.2533 117.461)">
<stop stop-color="#DF0000"/>
<stop offset="1" stop-color="#DF0000" stop-opacity="0.641221"/>
</radialGradient>
<radialGradient id="paint1_radial_7_1351" cx="0" cy="0" r="1" gradientUnits="userSpaceOnUse" gradientTransform="translate(92.771 136.992) rotate(139.627) scale(37.1401 22.1254)">
<stop stop-color="white" stop-opacity="0.435115"/>
<stop offset="1" stop-opacity="0"/>
</radialGradient>
<clipPath id="clip0_7_1351">
<rect width="222.783" height="323.556" fill="white"/>
</clipPath>
</defs>
</svg>
