<svg width="223" height="324" viewBox="0 0 223 324" fill="none" xmlns="http://www.w3.org/2000/svg">
<g clip-path="url(#clip0_7_1311)">
<path d="M222.449 314.064C222.449 319.1 218.333 323.223 213.288 323.223H9.4811C4.4479 323.223 0.333313 319.1 0.333313 314.064V9.49365C0.333313 4.45719 4.4479 0.333496 9.4811 0.333496H213.288C218.333 0.333496 222.449 4.45719 222.449 9.49365V314.064Z" fill="white" stroke="black" stroke-width="0.666667"/>
<path d="M8.26508 33.6846L19.9942 3.1429H24.3484L36.8484 33.6846H32.2442L28.6817 24.4346H15.9109L12.5567 33.6846H8.26508ZM17.0776 21.1429H27.4317L24.2442 12.6846C23.272 10.1151 22.5498 8.00401 22.0776 6.35124C21.6887 8.30957 21.1401 10.254 20.4317 12.1846L17.0776 21.1429Z" fill="#DF0000"/>
<path d="M144.31 86.3735C114.796 86.3735 110.856 115.989 110.856 115.989C110.856 115.989 106.915 86.3735 77.4011 86.3735C56.7423 86.3735 38.0493 99.6523 38.0493 124.702C38.0493 157.801 97.9248 191.086 110.856 239.688C123.16 191.127 183.662 157.801 183.662 124.702C183.662 99.6523 164.969 86.3735 144.31 86.3735Z" fill="url(#paint0_radial_7_1311)"/>
<g filter="url(#filter0_f_7_1311)">
<path d="M39.9207 148.024C39.9207 148.024 36.7775 109.714 48.826 98.4536C62.3688 85.797 103.371 93.8424 103.371 93.8424C103.371 93.8424 75.4981 103.864 64.4101 113.44C53.8089 122.596 39.9207 148.024 39.9207 148.024Z" fill="url(#paint1_radial_7_1311)"/>
</g>
<g filter="url(#filter1_f_7_1311)">
<path d="M109.699 136.595C109.699 136.595 115.464 100.946 127.238 93.4205C140.473 84.9617 170.608 101.63 170.608 101.63C170.608 101.63 148.304 109.675 137.637 115.883C127.438 121.819 109.699 136.595 109.699 136.595Z" fill="url(#paint2_radial_7_1311)"/>
</g>
<path d="M31.1097 43.043C23.87 43.043 22.9033 50.3075 22.9033 50.3075C22.9033 50.3075 21.9367 43.043 14.697 43.043C9.62944 43.043 5.04407 46.3002 5.04407 52.4449C5.04407 60.564 19.7314 68.7287 22.9033 80.6508C25.9216 68.7387 40.7626 60.564 40.7626 52.4449C40.7626 46.3002 36.1773 43.043 31.1097 43.043Z" fill="#DF0000"/>
<path d="M214.846 288.354L203.117 318.895H198.763L186.263 288.354H190.867L194.43 297.604H207.2L210.555 288.354H214.846ZM206.034 300.895H195.68L198.867 309.354C199.839 311.923 200.562 314.034 201.034 315.687C201.423 313.729 201.971 311.784 202.68 309.854L206.034 300.895Z" fill="#DF0000"/>
<path d="M192.002 278.995C199.241 278.995 200.208 271.73 200.208 271.73C200.208 271.73 201.175 278.995 208.414 278.995C213.482 278.995 218.067 275.737 218.067 269.593C218.067 261.474 203.38 253.309 200.208 241.387C197.19 253.299 182.349 261.474 182.349 269.593C182.349 275.737 186.934 278.995 192.002 278.995Z" fill="#DF0000"/>
</g>
<defs>
<filter id="filter0_f_7_1311" x="32.0097" y="83.7802" width="78.9025" height="71.7852" filterUnits="userSpaceOnUse" color-interpolation-filters="sRGB">
<feFlood flood-opacity="0" result="BackgroundImageFix"/>
<feBlend mode="normal" in="SourceGraphic" in2="BackgroundImageFix" result="shape"/>
<feGaussianBlur stdDeviation="3.77076" result="effect1_foregroundBlur_7_1311"/>
</filter>
<filter id="filter1_f_7_1311" x="103.132" y="84.4582" width="74.0443" height="58.7048" filterUnits="userSpaceOnUse" color-interpolation-filters="sRGB">
<feFlood flood-opacity="0" result="BackgroundImageFix"/>
<feBlend mode="normal" in="SourceGraphic" in2="BackgroundImageFix" result="shape"/>
<feGaussianBlur stdDeviation="3.28385" result="effect1_foregroundBlur_7_1311"/>
</filter>
<radialGradient id="paint0_radial_7_1311" cx="0" cy="0" r="1" gradientUnits="userSpaceOnUse" gradientTransform="translate(108.981 119.157) rotate(180) scale(72.8064 117.213)">
<stop stop-color="#DF0000"/>
<stop offset="1" stop-color="#DF0000" stop-opacity="0.671756"/>
</radialGradient>
<radialGradient id="paint1_radial_7_1311" cx="0" cy="0" r="1" gradientUnits="userSpaceOnUse" gradientTransform="translate(58.867 106.019) rotate(-31.1869) scale(43.0067 25.6203)">
<stop stop-color="white" stop-opacity="0.312977"/>
<stop offset="1" stop-opacity="0"/>
</radialGradient>
<radialGradient id="paint2_radial_7_1311" cx="0" cy="0" r="1" gradientUnits="userSpaceOnUse" gradientTransform="translate(128.17 101.105) rotate(-23.0329) scale(34.8543 23.6967)">
<stop stop-color="white" stop-opacity="0.290076"/>
<stop offset="1" stop-opacity="0"/>
</radialGradient>
<clipPath id="clip0_7_1311">
<rect width="222.783" height="323.556" fill="white"/>
</clipPath>
</defs>
</svg>
