<svg width="223" height="324" viewBox="0 0 223 324" fill="none" xmlns="http://www.w3.org/2000/svg">
<g clip-path="url(#clip0_7_1372)">
<path d="M222.449 314.064C222.449 319.1 218.333 323.223 213.288 323.223H9.48112C4.44791 323.223 0.33333 319.1 0.33333 314.064V9.49365C0.33333 4.45719 4.44791 0.333496 9.48112 0.333496H213.288C218.333 0.333496 222.449 4.45719 222.449 9.49365V314.064Z" fill="white" stroke="black" stroke-width="0.666667"/>
<path d="M8.26505 33.6846L19.9942 3.1429H24.3484L36.8484 33.6846H32.2442L28.6817 24.4346H15.9109L12.5567 33.6846H8.26505ZM17.0776 21.1429H27.4317L24.2442 12.6846C23.272 10.1151 22.5498 8.00401 22.0776 6.35124C21.6887 8.30957 21.1401 10.254 20.4317 12.1846L17.0776 21.1429Z" fill="black"/>
<path d="M214.607 290.462L202.877 321.004H198.523L186.023 290.462H190.627L194.19 299.712H206.961L210.315 290.462H214.607ZM205.794 303.004H195.44L198.627 311.462C199.6 314.032 200.322 316.143 200.794 317.795C201.183 315.837 201.732 313.893 202.44 311.962L205.794 303.004Z" fill="black"/>
<path d="M179.065 183.91C177.03 152.718 113.921 94.0091 111.886 79.3242C109.851 94.0014 46.7422 152.71 44.7072 183.91C43.2861 205.96 58.9604 215.101 73.2136 215.101C88.6454 214.935 101.391 193.569 105.781 189.414C107.816 194.919 92.3019 240.788 87.4584 240.788H136.323C131.479 240.788 115.965 194.919 118 189.414C121.844 193.23 133.112 214.462 150.576 215.101C164.821 215.094 180.487 205.96 179.065 183.91Z" fill="url(#paint0_radial_7_1372)"/>
<g filter="url(#filter0_f_7_1372)">
<path d="M63.7275 221.853C63.7275 221.853 34.8482 198.398 38.3606 177.861C42.3087 154.776 78.2973 105.055 78.2973 105.055C78.2973 105.055 72.9121 163.847 68.9857 181.932C65.2317 199.223 63.7275 221.853 63.7275 221.853Z" fill="url(#paint1_radial_7_1372)"/>
</g>
<g filter="url(#filter1_f_7_1372)">
<path d="M69.2311 206.176C69.2311 206.176 41.1354 156.771 53.1834 134.383C66.7258 109.218 130.871 74.934 130.871 74.934C130.871 74.934 102.323 142.409 90.6534 161.52C79.4958 179.791 69.2311 206.176 69.2311 206.176Z" fill="url(#paint2_radial_7_1372)"/>
</g>
<g filter="url(#filter2_f_7_1372)">
<path d="M86.7128 163.316C86.7128 163.316 70.0814 130.036 81.7532 112.777C94.8727 93.3772 148.168 62.9301 148.168 62.9301C148.168 62.9301 119.009 114.265 107.971 129.12C97.4185 143.322 86.7128 163.316 86.7128 163.316Z" fill="url(#paint3_radial_7_1372)"/>
</g>
<path d="M18.7392 48.8145V275.041H198.06V48.8145H18.7392ZM111.888 79.3261C113.923 94.0109 177.025 152.72 179.06 183.911C180.481 205.962 164.82 215.094 150.576 215.102C133.111 214.462 121.839 193.23 117.995 189.415C115.96 194.919 131.473 240.789 136.317 240.789H87.4586C92.3022 240.789 107.815 194.919 105.781 189.415C101.39 193.569 88.6401 214.936 73.2083 215.102C58.9551 215.102 43.2865 205.962 44.7076 183.911C46.7426 152.712 109.853 94.0032 111.888 79.3261Z" fill="#FFFEFF"/>
<path d="M38.6416 65.7951C38.1548 58.3339 23.0588 44.2905 22.5721 40.7778C22.0853 44.2887 6.98928 58.332 6.5025 65.7951C6.16257 71.0697 9.91193 73.2563 13.3214 73.2563C17.0127 73.2167 20.0615 68.1056 21.1117 67.1119C21.5985 68.4287 17.8874 79.4008 16.7288 79.4008H28.4174C27.2588 79.4008 23.5476 68.4287 24.0344 67.1119C24.9539 68.0247 27.6492 73.1034 31.8268 73.2563C35.2342 73.2545 38.9815 71.0697 38.6416 65.7951Z" fill="black"/>
<path d="M184.23 258.352C184.717 265.813 199.813 279.856 200.3 283.369C200.786 279.858 215.882 265.815 216.369 258.352C216.709 253.077 212.96 250.89 209.55 250.89C205.859 250.93 202.81 256.041 201.76 257.035C201.273 255.718 204.984 244.746 206.143 244.746H194.454C195.613 244.746 199.324 255.718 198.837 257.035C197.918 256.122 195.222 251.043 191.045 250.89C187.638 250.892 183.89 253.077 184.23 258.352Z" fill="black"/>
</g>
<defs>
<filter id="filter0_f_7_1372" x="22.9456" y="89.9359" width="70.4705" height="147.036" filterUnits="userSpaceOnUse" color-interpolation-filters="sRGB">
<feFlood flood-opacity="0" result="BackgroundImageFix"/>
<feBlend mode="normal" in="SourceGraphic" in2="BackgroundImageFix" result="shape"/>
<feGaussianBlur stdDeviation="7.55938" result="effect1_foregroundBlur_7_1372"/>
</filter>
<filter id="filter1_f_7_1372" x="29.3602" y="54.1138" width="122.331" height="172.882" filterUnits="userSpaceOnUse" color-interpolation-filters="sRGB">
<feFlood flood-opacity="0" result="BackgroundImageFix"/>
<feBlend mode="normal" in="SourceGraphic" in2="BackgroundImageFix" result="shape"/>
<feGaussianBlur stdDeviation="10.4101" result="effect1_foregroundBlur_7_1372"/>
</filter>
<filter id="filter2_f_7_1372" x="62.4805" y="47.8114" width="100.806" height="130.624" filterUnits="userSpaceOnUse" color-interpolation-filters="sRGB">
<feFlood flood-opacity="0" result="BackgroundImageFix"/>
<feBlend mode="normal" in="SourceGraphic" in2="BackgroundImageFix" result="shape"/>
<feGaussianBlur stdDeviation="7.55938" result="effect1_foregroundBlur_7_1372"/>
</filter>
<radialGradient id="paint0_radial_7_1372" cx="0" cy="0" r="1" gradientUnits="userSpaceOnUse" gradientTransform="translate(109.617 122.982) rotate(-179.223) scale(106.582 152.397)">
<stop/>
<stop offset="1" stop-opacity="0.648855"/>
</radialGradient>
<radialGradient id="paint1_radial_7_1372" cx="0" cy="0" r="1" gradientUnits="userSpaceOnUse" gradientTransform="translate(54.8651 180.274) rotate(-68.5199) scale(60.3212 29.5422)">
<stop stop-color="white" stop-opacity="0.435115"/>
<stop offset="1" stop-opacity="0"/>
</radialGradient>
<radialGradient id="paint2_radial_7_1372" cx="0" cy="0" r="1" gradientUnits="userSpaceOnUse" gradientTransform="translate(73.2958 149.274) rotate(-46.8824) scale(71.4289 45.2158)">
<stop stop-color="white" stop-opacity="0.48855"/>
<stop offset="1" stop-opacity="0"/>
</radialGradient>
<radialGradient id="paint3_radial_7_1372" cx="0" cy="0" r="1" gradientUnits="userSpaceOnUse" gradientTransform="translate(95.7922 121.784) rotate(-44.1559) scale(60.3213 29.5422)">
<stop stop-color="white" stop-opacity="0.236641"/>
<stop offset="1" stop-opacity="0"/>
</radialGradient>
<clipPath id="clip0_7_1372">
<rect width="222.783" height="323.556" fill="white"/>
</clipPath>
</defs>
</svg>
