<svg width="223" height="324" viewBox="0 0 223 324" fill="none" xmlns="http://www.w3.org/2000/svg">
<g clip-path="url(#clip0_7_1474)">
<path d="M222.449 314.064C222.449 319.1 218.333 323.223 213.288 323.223H9.48116C4.44796 323.223 0.333374 319.1 0.333374 314.064V9.49365C0.333374 4.45719 4.44796 0.333496 9.48116 0.333496H213.288C218.333 0.333496 222.449 4.45719 222.449 9.49365V314.064Z" fill="white" stroke="black" stroke-width="0.666667"/>
<path d="M27.5879 58.3197C27.5879 58.3197 32.2924 54.556 32.2924 49.3384C32.2924 46.2839 29.5806 41.2129 23.3112 41.2129C17.0417 41.2129 14.3299 46.2859 14.3299 49.3384C14.3299 54.556 19.0345 58.3197 19.0345 58.3197C13.8089 54.249 4.49292 57.0281 4.49292 65.1636C4.49292 69.2362 7.82078 73.7169 13.0463 73.7169C19.3158 73.7169 22.0276 66.873 22.0276 66.873C22.0276 66.873 22.8239 74.6737 18.1787 78.8494H28.4436C23.7985 74.6757 24.5948 66.873 24.5948 66.873C24.5948 66.873 27.3066 73.7169 33.576 73.7169C38.8035 73.7169 42.1294 69.2342 42.1294 65.1636C42.1294 57.0281 32.8134 54.249 27.5879 58.3197Z" fill="black"/>
<path d="M195.311 264.987C195.311 264.987 190.607 268.751 190.607 273.968C190.607 277.023 193.319 282.094 199.588 282.094C205.858 282.094 208.569 277.021 208.569 273.968C208.569 268.751 203.865 264.987 203.865 264.987C209.09 269.058 218.406 266.279 218.406 258.143C218.406 254.07 215.079 249.59 209.853 249.59C203.584 249.59 200.872 256.434 200.872 256.434C200.872 256.434 200.075 248.633 204.721 244.457H194.456C199.101 248.631 198.305 256.434 198.305 256.434C198.305 256.434 195.593 249.59 189.323 249.59C184.096 249.59 180.77 254.072 180.77 258.143C180.77 266.279 190.086 269.058 195.311 264.987Z" fill="black"/>
<path d="M76.7638 33.4667C76.7638 33.4667 84.7203 27.1015 84.7203 18.2773C84.7203 13.1114 80.134 4.53516 69.5309 4.53516C58.9279 4.53516 54.3416 13.1148 54.3416 18.2773C54.3416 27.1015 62.2981 33.4667 62.2981 33.4667C53.4605 26.5822 37.705 31.2824 37.705 45.0413C37.705 51.9291 43.3331 59.507 52.1707 59.507C62.7738 59.507 67.3601 47.9324 67.3601 47.9324C67.3601 47.9324 68.7068 61.1251 60.8508 68.1871H78.2111C70.3551 61.1285 71.7018 47.9324 71.7018 47.9324C71.7018 47.9324 76.2881 59.507 86.8912 59.507C95.7321 59.507 101.357 51.9257 101.357 45.0413C101.357 31.2824 85.6014 26.5822 76.7638 33.4667Z" fill="black"/>
<path d="M76.1472 124.267C76.1472 124.267 84.1037 117.902 84.1037 109.078C84.1037 103.912 79.5174 95.3359 68.9144 95.3359C58.3113 95.3359 53.725 103.916 53.725 109.078C53.725 117.902 61.6815 124.267 61.6815 124.267C52.8439 117.383 37.0884 122.083 37.0884 135.842C37.0884 142.73 42.7166 150.308 51.5541 150.308C62.1572 150.308 66.7435 138.733 66.7435 138.733C66.7435 138.733 68.0902 151.926 60.2342 158.988H77.5945C69.7385 151.929 71.0852 138.733 71.0852 138.733C71.0852 138.733 75.6715 150.308 86.2746 150.308C95.1155 150.308 100.74 142.726 100.74 135.842C100.74 122.083 84.9848 117.383 76.1472 124.267Z" fill="black"/>
<path d="M162.077 33.2347C162.077 33.2347 170.034 26.8695 170.034 18.0453C170.034 12.8795 165.447 4.30322 154.844 4.30322C144.241 4.30322 139.655 12.8828 139.655 18.0453C139.655 26.8695 147.611 33.2347 147.611 33.2347C138.774 26.3503 123.018 31.0504 123.018 44.8093C123.018 51.6971 128.646 59.2751 137.484 59.2751C148.087 59.2751 152.673 47.7005 152.673 47.7005C152.673 47.7005 154.02 60.8932 146.164 67.9552H163.524C155.668 60.8965 157.015 47.7005 157.015 47.7005C157.015 47.7005 161.601 59.2751 172.205 59.2751C181.045 59.2751 186.67 51.6938 186.67 44.8093C186.67 31.0504 170.915 26.3503 162.077 33.2347Z" fill="black"/>
<path d="M162.077 124.036C162.077 124.036 170.034 117.671 170.034 108.847C170.034 103.681 165.447 95.1045 154.844 95.1045C144.241 95.1045 139.655 103.684 139.655 108.847C139.655 117.671 147.611 124.036 147.611 124.036C138.774 117.152 123.018 121.852 123.018 135.611C123.018 142.498 128.646 150.076 137.484 150.076C148.087 150.076 152.673 138.502 152.673 138.502C152.673 138.502 154.02 151.694 146.164 158.756H163.524C155.668 151.698 157.015 138.502 157.015 138.502C157.015 138.502 161.601 150.076 172.205 150.076C181.045 150.076 186.67 142.495 186.67 135.611C186.67 121.852 170.915 117.152 162.077 124.036Z" fill="black"/>
<path d="M119.436 79.0414C119.436 79.0414 127.392 72.6762 127.392 63.852C127.392 58.6861 122.806 50.1099 112.203 50.1099C101.6 50.1099 97.0134 58.6895 97.0134 63.852C97.0134 72.6762 104.97 79.0414 104.97 79.0414C96.1324 72.1569 80.3768 76.8571 80.3768 90.616C80.3768 97.5038 86.005 105.082 94.8426 105.082C105.446 105.082 110.032 93.5071 110.032 93.5071C110.032 93.5071 111.379 106.7 103.523 113.762H120.883C113.027 106.703 114.374 93.5071 114.374 93.5071C114.374 93.5071 118.96 105.082 129.563 105.082C138.404 105.082 144.029 97.5004 144.029 90.616C144.029 76.8571 128.273 72.1569 119.436 79.0414Z" fill="black"/>
<path d="M146.75 290.403C146.75 290.403 138.794 296.768 138.794 305.592C138.794 310.758 143.38 319.334 153.983 319.334C164.586 319.334 169.172 310.755 169.172 305.592C169.172 296.768 161.216 290.403 161.216 290.403C170.053 297.287 185.809 292.587 185.809 278.828C185.809 271.94 180.181 264.362 171.343 264.362C160.74 264.362 156.154 275.937 156.154 275.937C156.154 275.937 154.807 262.744 162.663 255.682H145.303C153.159 262.741 151.812 275.937 151.812 275.937C151.812 275.937 147.226 264.362 136.623 264.362C127.782 264.362 122.157 271.944 122.157 278.828C122.157 292.587 137.913 297.287 146.75 290.403Z" fill="black"/>
<path d="M147.611 199.602C147.611 199.602 139.655 205.967 139.655 214.791C139.655 219.957 144.241 228.533 154.844 228.533C165.447 228.533 170.033 219.954 170.033 214.791C170.033 205.967 162.077 199.602 162.077 199.602C170.914 206.486 186.67 201.786 186.67 188.027C186.67 181.139 181.042 173.561 172.204 173.561C161.601 173.561 157.015 185.136 157.015 185.136C157.015 185.136 155.668 171.943 163.524 164.881H146.164C154.02 171.94 152.673 185.136 152.673 185.136C152.673 185.136 148.087 173.561 137.484 173.561C128.643 173.561 123.018 181.143 123.018 188.027C123.018 201.786 138.773 206.486 147.611 199.602Z" fill="black"/>
<path d="M61.4369 290.634C61.4369 290.634 53.4804 296.999 53.4804 305.823C53.4804 310.989 58.0667 319.566 68.6697 319.566C79.2728 319.566 83.8591 310.986 83.8591 305.823C83.8591 296.999 75.9026 290.634 75.9026 290.634C84.7402 297.519 100.496 292.818 100.496 279.059C100.496 272.172 94.8676 264.594 86.03 264.594C75.4269 264.594 70.8406 276.168 70.8406 276.168C70.8406 276.168 69.4939 262.976 77.3499 255.914H59.9896C67.8456 262.972 66.4989 276.168 66.4989 276.168C66.4989 276.168 61.9126 264.594 51.3095 264.594C42.4686 264.594 36.8438 272.175 36.8438 279.059C36.8438 292.818 52.5993 297.519 61.4369 290.634Z" fill="black"/>
<path d="M61.6815 199.833C61.6815 199.833 53.725 206.198 53.725 215.023C53.725 220.189 58.3113 228.765 68.9144 228.765C79.5174 228.765 84.1037 220.185 84.1037 215.023C84.1037 206.198 76.1472 199.833 76.1472 199.833C84.9848 206.718 100.74 202.018 100.74 188.259C100.74 181.371 95.1122 173.793 86.2746 173.793C75.6715 173.793 71.0852 185.368 71.0852 185.368C71.0852 185.368 69.7385 172.175 77.5945 165.113H60.2342C68.0902 172.171 66.7435 185.368 66.7435 185.368C66.7435 185.368 62.1572 173.793 51.5541 173.793C42.7132 173.793 37.0884 181.374 37.0884 188.259C37.0884 202.018 52.8439 206.718 61.6815 199.833Z" fill="black"/>
<path d="M14.3463 32.5605H10.5963V8.66471C9.6935 9.52582 8.506 10.3869 7.03377 11.248C5.57544 12.1092 4.26294 12.755 3.09627 13.1855V9.56055C5.1935 8.57444 7.02683 7.37999 8.59627 5.97721C10.1657 4.57443 11.2768 3.21332 11.9296 1.89388H14.3463V32.5605Z" fill="black"/>
<path d="M28.0006 36.4233C25.7177 36.4233 23.7733 35.8021 22.1672 34.5596C20.5612 33.3071 19.3339 31.494 18.4854 29.1202C17.6369 26.7364 17.2127 23.8576 17.2127 20.4839C17.2127 17.1303 17.6369 14.2667 18.4854 11.893C19.344 9.50912 20.5763 7.69094 22.1824 6.43841C23.7985 5.17579 25.7379 4.54448 28.0006 4.54448C30.2632 4.54448 32.1975 5.17579 33.8036 6.43841C35.4198 7.69094 36.6521 9.50912 37.5006 11.893C38.3592 14.2667 38.7885 17.1303 38.7885 20.4839C38.7885 23.8576 38.3642 26.7364 37.5157 29.1202C36.6672 31.494 35.44 33.3071 33.8339 34.5596C32.2278 35.8021 30.2834 36.4233 28.0006 36.4233ZM28.0006 33.0899C30.2632 33.0899 32.0208 31.999 33.2733 29.8172C34.5258 27.6354 35.1521 24.5243 35.1521 20.4839C35.1521 17.797 34.8642 15.5091 34.2885 13.6202C33.7228 11.7313 32.9046 10.292 31.8339 9.30205C30.7733 8.31215 29.4955 7.8172 28.0006 7.8172C25.7581 7.8172 24.0056 8.92326 22.743 11.1354C21.4804 13.3374 20.8491 16.4536 20.8491 20.4839C20.8491 23.1707 21.1319 25.4536 21.6975 27.3324C22.2632 29.2111 23.0763 30.6404 24.1369 31.6202C25.2076 32.6 26.4955 33.0899 28.0006 33.0899Z" fill="black"/>
<path d="M104.093 245.25C104.093 245.25 96.1366 251.615 96.1366 260.44C96.1366 265.605 100.723 274.182 111.326 274.182C121.929 274.182 126.515 265.602 126.515 260.44C126.515 251.615 118.559 245.25 118.559 245.25C127.396 252.135 143.152 247.435 143.152 233.676C143.152 226.788 137.524 219.21 128.686 219.21C118.083 219.21 113.497 230.785 113.497 230.785C113.497 230.785 112.15 217.592 120.006 210.53H102.646C110.502 217.588 109.155 230.785 109.155 230.785C109.155 230.785 104.569 219.21 93.9657 219.21C85.1248 219.21 79.5 226.791 79.5 233.676C79.5 247.435 95.2555 252.135 104.093 245.25Z" fill="black"/>
<path d="M209.183 291.968H212.933V315.864C213.836 315.003 215.023 314.142 216.495 313.281C217.954 312.42 219.266 311.774 220.433 311.343V314.968C218.336 315.954 216.502 317.149 214.933 318.552C213.363 319.954 212.252 321.315 211.599 322.635H209.183V291.968Z" fill="black"/>
<path d="M195.528 288.106C197.811 288.106 199.756 288.727 201.362 289.969C202.968 291.222 204.195 293.035 205.044 295.409C205.892 297.793 206.316 300.671 206.316 304.045C206.316 307.399 205.892 310.262 205.044 312.636C204.185 315.02 202.953 316.838 201.347 318.091C199.731 319.353 197.791 319.985 195.528 319.985C193.266 319.985 191.332 319.353 189.725 318.091C188.109 316.838 186.877 315.02 186.028 312.636C185.17 310.262 184.741 307.399 184.741 304.045C184.741 300.671 185.165 297.793 186.013 295.409C186.862 293.035 188.089 291.222 189.695 289.969C191.301 288.727 193.246 288.106 195.528 288.106ZM195.528 291.439C193.266 291.439 191.508 292.53 190.256 294.712C189.003 296.894 188.377 300.005 188.377 304.045C188.377 306.732 188.665 309.02 189.241 310.909C189.806 312.798 190.624 314.237 191.695 315.227C192.756 316.217 194.034 316.712 195.528 316.712C197.771 316.712 199.523 315.606 200.786 313.394C202.049 311.192 202.68 308.075 202.68 304.045C202.68 301.358 202.397 299.075 201.832 297.197C201.266 295.318 200.453 293.889 199.392 292.909C198.321 291.929 197.034 291.439 195.528 291.439Z" fill="black"/>
</g>
<defs>
<clipPath id="clip0_7_1474">
<rect width="222.783" height="323.556" fill="white"/>
</clipPath>
</defs>
</svg>
