<svg width="223" height="324" viewBox="0 0 223 324" fill="none" xmlns="http://www.w3.org/2000/svg">
<g clip-path="url(#clip0_7_1805)">
<path d="M222.449 314.064C222.449 319.1 218.333 323.223 213.288 323.223H9.48116C4.44796 323.223 0.333374 319.1 0.333374 314.064V9.49341C0.333374 4.45695 4.44796 0.333252 9.48116 0.333252H213.288C218.333 0.333252 222.449 4.45695 222.449 9.49341V314.064Z" fill="white" stroke="black" stroke-width="0.666667"/>
<path d="M13.1015 6.52279V2.91862H32.8724V5.83529C30.9279 7.90473 28.9974 10.6547 27.0807 14.0853C25.1779 17.5158 23.7057 21.0436 22.664 24.6686C21.914 27.2242 21.4349 30.0228 21.2265 33.0645H17.3724C17.414 30.6617 17.8862 27.7589 18.789 24.3561C19.6918 20.9533 20.9835 17.6756 22.664 14.5228C24.3585 11.3561 26.1571 8.68945 28.0599 6.52279H13.1015Z" fill="black"/>
<path d="M27.5879 58.3197C27.5879 58.3197 32.2924 54.556 32.2924 49.3384C32.2924 46.2839 29.5806 41.2129 23.3112 41.2129C17.0417 41.2129 14.3299 46.2859 14.3299 49.3384C14.3299 54.556 19.0345 58.3197 19.0345 58.3197C13.8089 54.249 4.49292 57.0281 4.49292 65.1636C4.49292 69.2362 7.82078 73.7169 13.0463 73.7169C19.3158 73.7169 22.0276 66.873 22.0276 66.873C22.0276 66.873 22.8239 74.6737 18.1787 78.8494H28.4436C23.7985 74.6757 24.5948 66.873 24.5948 66.873C24.5948 66.873 27.3066 73.7169 33.576 73.7169C38.8035 73.7169 42.1294 69.2342 42.1294 65.1636C42.1294 57.0281 32.8134 54.249 27.5879 58.3197Z" fill="black"/>
<path d="M209.798 316.164V319.768H190.027V316.851C191.971 314.782 193.902 312.032 195.819 308.601C197.721 305.171 199.194 301.643 200.235 298.018C200.985 295.462 201.464 292.664 201.673 289.622H205.527C205.485 292.025 205.013 294.928 204.11 298.33C203.207 301.733 201.916 305.011 200.235 308.164C198.541 311.33 196.742 313.997 194.839 316.164H209.798Z" fill="black"/>
<path d="M195.311 264.987C195.311 264.987 190.607 268.751 190.607 273.968C190.607 277.023 193.319 282.094 199.588 282.094C205.858 282.094 208.569 277.021 208.569 273.968C208.569 268.751 203.865 264.987 203.865 264.987C209.09 269.058 218.406 266.279 218.406 258.143C218.406 254.07 215.079 249.59 209.853 249.59C203.584 249.59 200.872 256.434 200.872 256.434C200.872 256.434 200.075 248.633 204.721 244.457H194.456C199.101 248.631 198.305 256.434 198.305 256.434C198.305 256.434 195.593 249.59 189.323 249.59C184.096 249.59 180.77 254.072 180.77 258.143C180.77 266.279 190.086 269.058 195.311 264.987Z" fill="black"/>
<path d="M83.1637 39.8666C83.1637 39.8666 91.1202 33.5014 91.1202 24.6772C91.1202 19.5113 86.5339 10.9351 75.9308 10.9351C65.3278 10.9351 60.7415 19.5147 60.7415 24.6772C60.7415 33.5014 68.698 39.8666 68.698 39.8666C59.8604 32.9821 44.1049 37.6823 44.1049 51.4412C44.1049 58.329 49.733 65.9069 58.5706 65.9069C69.1737 65.9069 73.76 54.3323 73.76 54.3323C73.76 54.3323 75.1067 67.525 67.2507 74.587H84.611C76.755 67.5284 78.1017 54.3323 78.1017 54.3323C78.1017 54.3323 82.688 65.9069 93.2911 65.9069C102.132 65.9069 107.757 58.3256 107.757 51.4412C107.757 37.6823 92.0013 32.9821 83.1637 39.8666Z" fill="black"/>
<path d="M68.7578 282.992C68.7578 282.992 60.8013 289.357 60.8013 298.181C60.8013 303.347 65.3876 311.924 75.9907 311.924C86.5937 311.924 91.18 303.344 91.18 298.181C91.18 289.357 83.2235 282.992 83.2235 282.992C92.0611 289.877 107.817 285.176 107.817 271.417C107.817 264.53 102.188 256.952 93.3509 256.952C82.7478 256.952 78.1615 268.526 78.1615 268.526C78.1615 268.526 76.8148 255.334 84.6708 248.272H67.3105C75.1665 255.33 73.8198 268.526 73.8198 268.526C73.8198 268.526 69.2335 256.952 58.6304 256.952C49.7895 256.952 44.1647 264.533 44.1647 271.417C44.1647 285.176 59.9202 289.877 68.7578 282.992Z" fill="black"/>
<path d="M83.1637 160.534C83.1637 160.534 91.1202 154.169 91.1202 145.345C91.1202 140.179 86.5339 131.603 75.9308 131.603C65.3278 131.603 60.7415 140.182 60.7415 145.345C60.7415 154.169 68.698 160.534 68.698 160.534C59.8604 153.65 44.1049 158.35 44.1049 172.109C44.1049 178.997 49.733 186.575 58.5706 186.575C69.1737 186.575 73.76 175 73.76 175C73.76 175 75.1067 188.193 67.2507 195.255H84.611C76.755 188.196 78.1017 175 78.1017 175C78.1017 175 82.688 186.575 93.2911 186.575C102.132 186.575 107.757 178.993 107.757 172.109C107.757 158.35 92.0013 153.65 83.1637 160.534Z" fill="black"/>
<path d="M153.544 39.6349C153.544 39.6349 161.5 33.2697 161.5 24.4455C161.5 19.2796 156.914 10.7034 146.311 10.7034C135.708 10.7034 131.122 19.283 131.122 24.4455C131.122 33.2697 139.078 39.6349 139.078 39.6349C130.241 32.7504 114.485 37.4506 114.485 51.2095C114.485 58.0973 120.113 65.6752 128.951 65.6752C139.554 65.6752 144.14 54.1006 144.14 54.1006C144.14 54.1006 145.487 67.2933 137.631 74.3553H154.991C147.135 67.2967 148.482 54.1006 148.482 54.1006C148.482 54.1006 153.068 65.6752 163.671 65.6752C172.512 65.6752 178.137 58.0939 178.137 51.2095C178.137 37.4506 162.381 32.7504 153.544 39.6349Z" fill="black"/>
<path d="M139.138 282.76C139.138 282.76 131.181 289.126 131.181 297.95C131.181 303.116 135.768 311.692 146.371 311.692C156.974 311.692 161.56 303.112 161.56 297.95C161.56 289.126 153.604 282.76 153.604 282.76C162.441 289.645 178.197 284.945 178.197 271.186C178.197 264.298 172.568 256.72 163.731 256.72C153.128 256.72 148.542 268.295 148.542 268.295C148.542 268.295 147.195 255.102 155.051 248.04H137.691C145.547 255.099 144.2 268.295 144.2 268.295C144.2 268.295 139.614 256.72 129.01 256.72C120.17 256.72 114.545 264.301 114.545 271.186C114.545 284.945 130.3 289.645 139.138 282.76Z" fill="black"/>
<path d="M153.544 160.303C153.544 160.303 161.5 153.937 161.5 145.113C161.5 139.947 156.914 131.371 146.311 131.371C135.708 131.371 131.122 139.951 131.122 145.113C131.122 153.937 139.078 160.303 139.078 160.303C130.241 153.418 114.485 158.118 114.485 171.877C114.485 178.765 120.113 186.343 128.951 186.343C139.554 186.343 144.14 174.768 144.14 174.768C144.14 174.768 145.487 187.961 137.631 195.023H154.991C147.135 187.964 148.482 174.768 148.482 174.768C148.482 174.768 153.068 186.343 163.671 186.343C172.512 186.343 178.137 178.762 178.137 171.877C178.137 158.118 162.381 153.418 153.544 160.303Z" fill="black"/>
<path d="M117.741 100.871C117.741 100.871 125.697 94.506 125.697 85.6818C125.697 80.516 121.111 71.9397 110.508 71.9397C99.9048 71.9397 95.3185 80.5193 95.3185 85.6818C95.3185 94.506 103.275 100.871 103.275 100.871C94.4374 93.9867 78.6819 98.6869 78.6819 112.446C78.6819 119.334 84.3101 126.912 93.1476 126.912C103.751 126.912 108.337 115.337 108.337 115.337C108.337 115.337 109.684 128.53 101.828 135.592H119.188C111.332 128.533 112.679 115.337 112.679 115.337C112.679 115.337 117.265 126.912 127.868 126.912C136.709 126.912 142.334 119.33 142.334 112.446C142.334 98.6869 126.578 93.9867 117.741 100.871Z" fill="black"/>
</g>
<defs>
<clipPath id="clip0_7_1805">
<rect width="222.783" height="323.556" fill="white"/>
</clipPath>
</defs>
</svg>
