<svg width="32" height="32" viewBox="0 0 32 32" fill="none" xmlns="http://www.w3.org/2000/svg">
<path d="M16 26.2858C15.7733 26.2858 15.5774 26.2101 15.4125 26.0588C15.2545 25.9144 15.1549 25.7218 15.1137 25.4811C14.9488 24.3394 14.7736 23.3524 14.588 22.5202C14.4094 21.688 14.1895 20.983 13.9284 20.4053C13.6742 19.8207 13.3547 19.3358 12.9699 18.9506C12.5852 18.5586 12.1042 18.2388 11.5271 17.9912C10.9499 17.7436 10.2525 17.5373 9.43488 17.3722C8.62411 17.2002 7.66219 17.0386 6.54911 16.8873C6.30176 16.8598 6.09906 16.7635 5.94103 16.5984C5.78987 16.4334 5.71429 16.2339 5.71429 16.0001C5.71429 15.7662 5.79331 15.5668 5.95134 15.4017C6.10937 15.2366 6.30863 15.1369 6.54911 15.1025C7.88893 14.9581 9.01575 14.7861 9.92958 14.5867C10.8434 14.3804 11.5958 14.0984 12.1867 13.7407C12.7844 13.3831 13.2654 12.9051 13.6296 12.3067C13.9937 11.7015 14.2857 10.9277 14.5056 9.98546C14.7255 9.0432 14.9282 7.88429 15.1137 6.50874C15.1549 6.26802 15.2545 6.07544 15.4125 5.93101C15.5774 5.78657 15.7733 5.71436 16 5.71436C16.2199 5.71436 16.4088 5.78657 16.5669 5.93101C16.7318 6.07544 16.8348 6.26802 16.876 6.50874C17.0684 7.88429 17.2746 9.0432 17.4944 9.98546C17.7212 10.9208 18.0166 11.6911 18.3808 12.2964C18.7449 12.8948 19.2225 13.3728 19.8134 13.7304C20.4042 14.088 21.1566 14.37 22.0704 14.5764C22.9843 14.7758 24.1111 14.9512 25.4509 15.1025C25.6845 15.1369 25.8803 15.2366 26.0384 15.4017C26.2033 15.5668 26.2857 15.7662 26.2857 16.0001C26.2857 16.2339 26.2033 16.4334 26.0384 16.5984C25.8803 16.7635 25.6811 16.8598 25.4406 16.8873C24.1077 17.0386 22.9808 17.2174 22.0601 17.4238C21.1463 17.6232 20.3905 17.9018 19.7927 18.2594C19.2018 18.6171 18.7243 19.0985 18.3602 19.7038C18.0029 20.3021 17.7109 21.0724 17.4841 22.0147C17.2643 22.9501 17.0616 24.1055 16.876 25.4811C16.8417 25.7218 16.7421 25.9144 16.5772 26.0588C16.4191 26.2101 16.2267 26.2858 16 26.2858Z" fill="currentColor"/>
</svg>
