<svg width="32" height="32" viewBox="0 0 32 32" fill="none" xmlns="http://www.w3.org/2000/svg">
<g clip-path="url(#clip0_155_211)">
<path d="M31.3919 21.3541C31.0737 21.0282 30.6688 20.8176 30.2275 20.7392C29.6375 19.2424 27.486 15.189 21.2419 14.06C19.9044 13.8176 18.6643 13.8629 17.526 14.0954C17.1625 13.0281 16.5979 11.967 15.7513 10.96C10.8752 5.16029 5.0545 6.56063 5.0185 6.57051C5.0185 6.57051 5.01267 6.57154 5.01027 6.57222C4.79564 6.28861 4.51964 6.0551 4.18535 5.90478C3.10295 5.41766 1.8234 5.89728 1.33414 6.97343C1.23506 7.19091 1.17369 7.42169 1.15174 7.65962C1.13666 7.82393 1.14077 7.99096 1.16409 8.15594C1.26866 8.88713 1.73392 9.5048 2.409 9.80819C2.69255 9.93567 2.99392 9.99976 3.29632 9.99976C3.55278 9.99976 3.80992 9.9534 4.05713 9.86102C4.59576 9.65922 5.02296 9.26073 5.26022 8.73953C5.30204 8.64749 5.33462 8.55341 5.36273 8.4583C6.44102 8.62022 8.444 9.09268 9.34915 10.4235C9.84423 11.1512 9.94915 12.0641 9.6608 13.1369C8.94835 15.7855 8.16903 16.544 7.89543 16.7389C7.66777 16.6053 7.38662 16.5198 7.04205 16.5198L6.95942 16.5215C6.03885 16.5569 5.59725 17.3034 5.49233 17.6931C5.48787 17.7094 5.48479 17.7258 5.48273 17.7425C5.45667 17.9763 5.36993 19.2257 6.22502 20.8738C7.27965 22.9078 9.27612 24.6542 12.1585 26.064C12.3022 26.1343 12.4445 26.2011 12.5861 26.2648C14.3035 27.0373 16.0596 27.4286 17.8058 27.4286C19.3322 27.4286 20.2928 27.1221 20.3971 27.0874C20.8102 26.9496 21.1445 26.6602 21.3389 26.2723C21.533 25.8844 21.5635 25.4447 21.425 25.0339C21.2083 24.3924 20.6162 23.9581 19.9407 23.9325C20.0762 23.3619 20.5665 22.1415 22.3459 20.4003C23.1221 19.6402 23.9529 19.2727 24.8076 19.3259C26.2349 19.4036 27.5069 20.581 28.2413 21.4236C27.9074 21.7952 27.6993 22.2803 27.691 22.8124C27.6821 23.3847 27.8978 23.9257 28.2983 24.3368C28.6991 24.7476 29.2367 24.9787 29.8123 24.9875C29.814 24.9875 29.8445 24.9879 29.8463 24.9879C30.0746 24.9879 30.3005 24.9518 30.5179 24.8808C30.5299 24.8768 30.5423 24.872 30.5539 24.8665L30.9359 24.6906C30.9479 24.6852 30.9595 24.6794 30.9705 24.6722C31.6034 24.286 31.9878 23.6155 31.9998 22.8785C32.0083 22.3065 31.7923 21.7652 31.3919 21.3541Z" fill="currentColor"/>
</g>
<defs>
<clipPath id="clip0_155_211">
<rect width="32" height="32" fill="white"/>
</clipPath>
</defs>
</svg>
