<svg width="32" height="32" viewBox="0 0 32 32" fill="none" xmlns="http://www.w3.org/2000/svg">
<path d="M16 28.5714C9.07339 28.5714 3.42857 22.9266 3.42857 16C3.42857 9.06105 9.07339 3.42856 16 3.42856C22.9389 3.42856 28.5714 9.06105 28.5714 16C28.5714 22.9266 22.9389 28.5714 16 28.5714ZM10.7003 22.4213L17.9843 18.847C18.391 18.6622 18.6745 18.3664 18.8717 17.972L22.4213 10.6879C22.8403 9.8252 22.2118 9.15965 21.312 9.59102L14.0403 13.1406C13.6459 13.3255 13.3748 13.5966 13.1653 14.028L9.59104 21.3244C9.19664 22.1625 9.84986 22.828 10.7003 22.4213ZM16.0123 17.5776C15.1619 17.5776 14.4594 16.8751 14.4594 16.0123C14.4594 15.1496 15.1619 14.4594 16.0123 14.4594C16.8751 14.4594 17.5776 15.1496 17.5776 16.0123C17.5776 16.8751 16.8751 17.5776 16.0123 17.5776Z" fill="currentColor"/>
</svg>
