<svg width="24" height="24" viewBox="0 0 24 24" fill="none" xmlns="http://www.w3.org/2000/svg">
<path d="M12 19.7142C11.8299 19.7142 11.6831 19.6575 11.5594 19.544C11.4409 19.4357 11.3662 19.2912 11.3352 19.1107C11.2116 18.2544 11.0802 17.5142 10.941 16.89C10.807 16.2659 10.6421 15.7371 10.4463 15.3038C10.2556 14.8654 10.016 14.5017 9.72745 14.2129C9.43887 13.9188 9.07815 13.679 8.64528 13.4933C8.21242 13.3076 7.68937 13.1528 7.07614 13.029C6.46807 12.9001 5.74663 12.7788 4.91181 12.6654C4.7263 12.6447 4.57428 12.5725 4.45576 12.4487C4.34239 12.3249 4.28571 12.1753 4.28571 11.9999C4.28571 11.8245 4.34497 11.675 4.46349 11.5512C4.58201 11.4274 4.73145 11.3526 4.91181 11.3268C5.91668 11.2184 6.7618 11.0895 7.44717 10.9399C8.13254 10.7851 8.69681 10.5737 9.13999 10.3054C9.58831 10.0372 9.94903 9.67868 10.2221 9.22991C10.4953 8.77597 10.7143 8.19566 10.8792 7.48897C11.0441 6.78228 11.1961 5.9131 11.3352 4.88143C11.3662 4.70089 11.4409 4.55646 11.5594 4.44813C11.6831 4.33981 11.8299 4.28564 12 4.28564C12.1649 4.28564 12.3066 4.33981 12.4251 4.44813C12.5488 4.55646 12.6261 4.70089 12.657 4.88143C12.8013 5.9131 12.9559 6.78228 13.1208 7.48897C13.2909 8.1905 13.5124 8.76823 13.7856 9.22217C14.0587 9.67094 14.4168 10.0294 14.86 10.2977C15.3032 10.5659 15.8674 10.7774 16.5528 10.9322C17.2382 11.0817 18.0833 11.2133 19.0882 11.3268C19.2634 11.3526 19.4102 11.4274 19.5288 11.5512C19.6524 11.675 19.7143 11.8245 19.7143 11.9999C19.7143 12.1753 19.6524 12.3249 19.5288 12.4487C19.4102 12.5725 19.2608 12.6447 19.0804 12.6654C18.0807 12.7788 17.2356 12.913 16.5451 13.0677C15.8597 13.2173 15.2929 13.4262 14.8445 13.6944C14.4014 13.9627 14.0432 14.3238 13.7701 14.7777C13.5021 15.2265 13.2831 15.8042 13.1131 16.5109C12.9482 17.2124 12.7962 18.079 12.657 19.1107C12.6313 19.2912 12.5565 19.4357 12.4329 19.544C12.3143 19.6575 12.17 19.7142 12 19.7142Z" fill="currentColor"/>
</svg>
