<svg width="223" height="324" viewBox="0 0 223 324" fill="none" xmlns="http://www.w3.org/2000/svg">
<g clip-path="url(#clip0_7_1987)">
<path d="M222.449 314.064C222.449 319.1 218.333 323.223 213.288 323.223H9.48116C4.44796 323.223 0.333374 319.1 0.333374 314.064V9.49341C0.333374 4.45695 4.44796 0.333252 9.48116 0.333252H213.288C218.333 0.333252 222.449 4.45695 222.449 9.49341V314.064Z" fill="white" stroke="black" stroke-width="0.666667"/>
<path d="M31.6901 8.48852L27.9609 8.78019C27.6276 7.30797 27.1554 6.23852 26.5443 5.57186C25.5304 4.50241 24.2804 3.96769 22.7943 3.96769C21.5998 3.96769 20.5512 4.30102 19.6484 4.96769C18.4679 5.8288 17.5373 7.08575 16.8568 8.73852C16.1762 10.3913 15.822 12.7455 15.7943 15.801C16.697 14.426 17.8012 13.4052 19.1068 12.7385C20.4123 12.0719 21.7804 11.7385 23.2109 11.7385C25.7109 11.7385 27.8359 12.6621 29.5859 14.5094C31.3498 16.3427 32.2318 18.7177 32.2318 21.6344C32.2318 23.551 31.8151 25.3357 30.9818 26.9885C30.1623 28.6274 29.0304 29.8844 27.5859 30.7594C26.1415 31.6344 24.5026 32.0719 22.6693 32.0719C19.5443 32.0719 16.9957 30.926 15.0234 28.6344C13.0512 26.3288 12.0651 22.5371 12.0651 17.2594C12.0651 11.3566 13.1554 7.06491 15.3359 4.38436C17.2387 2.05102 19.8012 0.884358 23.0234 0.884358C25.4262 0.884358 27.3915 1.55797 28.9193 2.90519C30.4609 4.25241 31.3845 6.11352 31.6901 8.48852ZM16.3776 21.6552C16.3776 22.9469 16.6484 24.183 17.1901 25.3635C17.7457 26.5441 18.5165 27.4469 19.5026 28.0719C20.4887 28.683 21.5234 28.9885 22.6068 28.9885C24.1901 28.9885 25.5512 28.3496 26.6901 27.0719C27.829 25.7941 28.3984 24.058 28.3984 21.8635C28.3984 19.7524 27.8359 18.0927 26.7109 16.8844C25.5859 15.6621 24.1693 15.051 22.4609 15.051C20.7665 15.051 19.329 15.6621 18.1484 16.8844C16.9679 18.0927 16.3776 19.683 16.3776 21.6552Z" fill="#DF0000"/>
<path d="M191.421 315.683L195.15 315.391C195.484 316.863 195.956 317.933 196.567 318.599C197.581 319.669 198.831 320.203 200.317 320.203C201.512 320.203 202.56 319.87 203.463 319.203C204.643 318.342 205.574 317.085 206.255 315.433C206.935 313.78 207.289 311.426 207.317 308.37C206.414 309.745 205.31 310.766 204.005 311.433C202.699 312.099 201.331 312.433 199.9 312.433C197.4 312.433 195.275 311.509 193.525 309.662C191.762 307.828 190.88 305.453 190.88 302.537C190.88 300.62 191.296 298.835 192.13 297.183C192.949 295.544 194.081 294.287 195.525 293.412C196.97 292.537 198.609 292.099 200.442 292.099C203.567 292.099 206.116 293.245 208.088 295.537C210.06 297.842 211.046 301.634 211.046 306.912C211.046 312.815 209.956 317.106 207.775 319.787C205.873 322.12 203.31 323.287 200.088 323.287C197.685 323.287 195.72 322.613 194.192 321.266C192.65 319.919 191.727 318.058 191.421 315.683ZM206.734 302.516C206.734 301.224 206.463 299.988 205.921 298.808C205.366 297.627 204.595 296.724 203.609 296.099C202.623 295.488 201.588 295.183 200.505 295.183C198.921 295.183 197.56 295.822 196.421 297.099C195.282 298.377 194.713 300.113 194.713 302.308C194.713 304.419 195.275 306.078 196.4 307.287C197.525 308.509 198.942 309.12 200.65 309.12C202.345 309.12 203.782 308.509 204.963 307.287C206.143 306.078 206.734 304.488 206.734 302.516Z" fill="#DF0000"/>
<path d="M29.0109 49.6765C24.8421 44.0367 22.6242 38.3049 22.6242 38.3049C22.6242 38.3049 20.4062 44.0367 16.2374 49.6765C12.0666 55.3143 6.87048 58.9816 6.87048 58.9816C6.87048 58.9816 12.0666 62.647 16.2374 68.2887C20.4062 73.9266 22.6242 79.6583 22.6242 79.6583C22.6242 79.6583 24.8421 73.9266 29.0109 68.2887C33.1817 62.647 38.3778 58.9816 38.3778 58.9816C38.3778 58.9816 33.1817 55.3143 29.0109 49.6765Z" fill="#DF0000"/>
<path d="M207.215 255.366C203.046 249.726 200.828 243.995 200.828 243.995C200.828 243.995 198.61 249.726 194.441 255.366C190.27 261.004 185.074 264.671 185.074 264.671C185.074 264.671 190.27 268.337 194.441 273.978C198.61 279.616 200.828 285.348 200.828 285.348C200.828 285.348 203.046 279.616 207.215 273.978C211.385 268.337 216.582 264.671 216.582 264.671C216.582 264.671 211.385 261.004 207.215 255.366Z" fill="#DF0000"/>
<path d="M158.031 239.722C150.725 229.838 146.838 219.793 146.838 219.793C146.838 219.793 142.951 229.838 135.646 239.722C128.336 249.602 119.23 256.029 119.23 256.029C119.23 256.029 128.336 262.453 135.646 272.34C142.951 282.22 146.838 292.265 146.838 292.265C146.838 292.265 150.725 282.22 158.031 272.34C165.341 262.453 174.447 256.029 174.447 256.029C174.447 256.029 165.341 249.602 158.031 239.722Z" fill="#DF0000"/>
<path d="M158.031 51.4519C150.725 41.5681 146.838 31.5232 146.838 31.5232C146.838 31.5232 142.951 41.5681 135.646 51.4519C128.336 61.3323 119.23 67.7593 119.23 67.7593C119.23 67.7593 128.336 74.1828 135.646 84.0701C142.951 93.9505 146.838 103.995 146.838 103.995C146.838 103.995 150.725 93.9505 158.031 84.0701C165.341 74.1828 174.447 67.7593 174.447 67.7593C174.447 67.7593 165.341 61.3323 158.031 51.4519Z" fill="#DF0000"/>
<path d="M158.031 144.386C150.725 134.503 146.838 124.458 146.838 124.458C146.838 124.458 142.951 134.503 135.646 144.386C128.336 154.267 119.23 160.694 119.23 160.694C119.23 160.694 128.336 167.117 135.646 177.005C142.951 186.885 146.838 196.93 146.838 196.93C146.838 196.93 150.725 186.885 158.031 177.005C165.341 167.117 174.447 160.694 174.447 160.694C174.447 160.694 165.341 154.267 158.031 144.386Z" fill="#DF0000"/>
<path d="M85.8775 239.879C78.5716 229.996 74.6846 219.951 74.6846 219.951C74.6846 219.951 70.7976 229.996 63.4917 239.879C56.1824 249.76 47.0762 256.187 47.0762 256.187C47.0762 256.187 56.1824 262.61 63.4917 272.498C70.7976 282.378 74.6846 292.423 74.6846 292.423C74.6846 292.423 78.5716 282.378 85.8775 272.498C93.1868 262.61 102.293 256.187 102.293 256.187C102.293 256.187 93.1868 249.76 85.8775 239.879Z" fill="#DF0000"/>
<path d="M85.8775 51.6096C78.5716 41.7258 74.6846 31.6809 74.6846 31.6809C74.6846 31.6809 70.7976 41.7258 63.4917 51.6096C56.1824 61.49 47.0762 67.917 47.0762 67.917C47.0762 67.917 56.1824 74.3405 63.4917 84.2278C70.7976 94.1082 74.6846 104.153 74.6846 104.153C74.6846 104.153 78.5716 94.1082 85.8775 84.2278C93.1868 74.3405 102.293 67.917 102.293 67.917C102.293 67.917 93.1868 61.49 85.8775 51.6096Z" fill="#DF0000"/>
<path d="M85.8775 144.544C78.5716 134.66 74.6846 124.615 74.6846 124.615C74.6846 124.615 70.7976 134.66 63.4917 144.544C56.1824 154.424 47.0762 160.851 47.0762 160.851C47.0762 160.851 56.1824 167.275 63.4917 177.162C70.7976 187.042 74.6846 197.087 74.6846 197.087C74.6846 197.087 78.5716 187.042 85.8775 177.162C93.1868 167.275 102.293 160.851 102.293 160.851C102.293 160.851 93.1868 154.424 85.8775 144.544Z" fill="#DF0000"/>
</g>
<defs>
<clipPath id="clip0_7_1987">
<rect width="222.783" height="323.556" fill="white"/>
</clipPath>
</defs>
</svg>
