<svg width="223" height="324" viewBox="0 0 223 324" fill="none" xmlns="http://www.w3.org/2000/svg">
<g clip-path="url(#clip0_7_1836)">
<path d="M222.449 314.064C222.449 319.1 218.333 323.223 213.288 323.223H9.48116C4.44796 323.223 0.333374 319.1 0.333374 314.064V9.49341C0.333374 4.45695 4.44796 0.333252 9.48116 0.333252H213.288C218.333 0.333252 222.449 4.45695 222.449 9.49341V314.064Z" fill="white" stroke="black" stroke-width="0.666667"/>
<path d="M12.4818 5.00936V1.40519H32.2526V4.32186C30.3082 6.3913 28.3776 9.1413 26.4609 12.5719C24.5582 16.0024 23.0859 19.5302 22.0443 23.1552C21.2943 25.7107 20.8151 28.5094 20.6068 31.551H16.7526C16.7943 29.1482 17.2665 26.2455 18.1693 22.8427C19.072 19.4399 20.3637 16.1621 22.0443 13.0094C23.7387 9.84269 25.5373 7.17602 27.4401 5.00936H12.4818Z" fill="#DF0000"/>
<path d="M210.63 319.162V322.766H190.859V319.849C192.803 317.78 194.734 315.03 196.65 311.599C198.553 308.169 200.025 304.641 201.067 301.016C201.817 298.46 202.296 295.662 202.505 292.62H206.359C206.317 295.023 205.845 297.926 204.942 301.328C204.039 304.731 202.748 308.009 201.067 311.162C199.373 314.328 197.574 316.995 195.671 319.162H210.63Z" fill="#DF0000"/>
<path d="M29.0109 49.6765C24.8421 44.0367 22.6242 38.3049 22.6242 38.3049C22.6242 38.3049 20.4062 44.0367 16.2374 49.6765C12.0666 55.3143 6.87048 58.9816 6.87048 58.9816C6.87048 58.9816 12.0666 62.647 16.2374 68.2887C20.4062 73.9266 22.6242 79.6583 22.6242 79.6583C22.6242 79.6583 24.8421 73.9266 29.0109 68.2887C33.1817 62.647 38.3778 58.9816 38.3778 58.9816C38.3778 58.9816 33.1817 55.3143 29.0109 49.6765Z" fill="#DF0000"/>
<path d="M207.215 255.366C203.046 249.726 200.828 243.995 200.828 243.995C200.828 243.995 198.61 249.726 194.441 255.366C190.27 261.004 185.074 264.671 185.074 264.671C185.074 264.671 190.27 268.337 194.441 273.978C198.61 279.616 200.828 285.348 200.828 285.348C200.828 285.348 203.046 279.616 207.215 273.978C211.385 268.337 216.582 264.671 216.582 264.671C216.582 264.671 211.385 261.004 207.215 255.366Z" fill="#DF0000"/>
<path d="M160.165 241.855C152.859 231.971 148.972 221.927 148.972 221.927C148.972 221.927 145.085 231.971 137.779 241.855C130.469 251.736 121.363 258.163 121.363 258.163C121.363 258.163 130.469 264.586 137.779 274.473C145.085 284.354 148.972 294.399 148.972 294.399C148.972 294.399 152.859 284.354 160.165 274.473C167.474 264.586 176.58 258.163 176.58 258.163C176.58 258.163 167.474 251.736 160.165 241.855Z" fill="#DF0000"/>
<path d="M160.165 49.3186C152.859 39.4348 148.972 29.3899 148.972 29.3899C148.972 29.3899 145.085 39.4348 137.779 49.3186C130.469 59.199 121.363 65.626 121.363 65.626C121.363 65.626 130.469 72.0495 137.779 81.9368C145.085 91.8172 148.972 101.862 148.972 101.862C148.972 101.862 152.859 91.8172 160.165 81.9368C167.474 72.0495 176.58 65.626 176.58 65.626C176.58 65.626 167.474 59.199 160.165 49.3186Z" fill="#DF0000"/>
<path d="M160.165 144.386C152.859 134.503 148.972 124.458 148.972 124.458C148.972 124.458 145.085 134.503 137.779 144.386C130.469 154.267 121.363 160.694 121.363 160.694C121.363 160.694 130.469 167.117 137.779 177.005C145.085 186.885 148.972 196.93 148.972 196.93C148.972 196.93 152.859 186.885 160.165 177.005C167.474 167.117 176.58 160.694 176.58 160.694C176.58 160.694 167.474 154.267 160.165 144.386Z" fill="#DF0000"/>
<path d="M83.7442 242.013C76.4383 232.129 72.5513 222.084 72.5513 222.084C72.5513 222.084 68.6643 232.129 61.3584 242.013C54.0491 251.893 44.9429 258.32 44.9429 258.32C44.9429 258.32 54.0491 264.744 61.3584 274.631C68.6643 284.511 72.5513 294.556 72.5513 294.556C72.5513 294.556 76.4383 284.511 83.7442 274.631C91.0535 264.744 100.16 258.32 100.16 258.32C100.16 258.32 91.0535 251.893 83.7442 242.013Z" fill="#DF0000"/>
<path d="M83.7442 49.4761C76.4383 39.5923 72.5513 29.5474 72.5513 29.5474C72.5513 29.5474 68.6643 39.5923 61.3584 49.4761C54.0491 59.3564 44.9429 65.7834 44.9429 65.7834C44.9429 65.7834 54.0491 72.207 61.3584 82.0943C68.6643 91.9746 72.5513 102.02 72.5513 102.02C72.5513 102.02 76.4383 91.9746 83.7442 82.0943C91.0535 72.207 100.16 65.7834 100.16 65.7834C100.16 65.7834 91.0535 59.3564 83.7442 49.4761Z" fill="#DF0000"/>
<path d="M83.7442 144.544C76.4383 134.66 72.5513 124.615 72.5513 124.615C72.5513 124.615 68.6643 134.66 61.3584 144.544C54.0491 154.424 44.9429 160.851 44.9429 160.851C44.9429 160.851 54.0491 167.275 61.3584 177.162C68.6643 187.042 72.5513 197.087 72.5513 197.087C72.5513 197.087 76.4383 187.042 83.7442 177.162C91.0535 167.275 100.16 160.851 100.16 160.851C100.16 160.851 91.0535 154.424 83.7442 144.544Z" fill="#DF0000"/>
<path d="M122.144 97.7429C114.838 87.8591 110.951 77.8142 110.951 77.8142C110.951 77.8142 107.064 87.8591 99.7583 97.7429C92.449 107.623 83.3428 114.05 83.3428 114.05C83.3428 114.05 92.449 120.474 99.7583 130.361C107.064 140.241 110.951 150.286 110.951 150.286C110.951 150.286 114.838 140.241 122.144 130.361C129.453 120.474 138.56 114.05 138.56 114.05C138.56 114.05 129.453 107.623 122.144 97.7429Z" fill="#DF0000"/>
</g>
<defs>
<clipPath id="clip0_7_1836">
<rect width="222.783" height="323.556" fill="white"/>
</clipPath>
</defs>
</svg>
