<svg width="223" height="324" viewBox="0 0 223 324" fill="none" xmlns="http://www.w3.org/2000/svg">
<g clip-path="url(#clip0_7_1706)">
<path d="M222.449 314.064C222.449 319.1 218.333 323.223 213.288 323.223H9.48116C4.44796 323.223 0.333374 319.1 0.333374 314.064V9.49341C0.333374 4.45695 4.44796 0.333252 9.48116 0.333252H213.288C218.333 0.333252 222.449 4.45695 222.449 9.49341V314.064Z" fill="white" stroke="black" stroke-width="0.666667"/>
<path d="M19.2422 17.1218C17.6867 16.5524 16.5339 15.7399 15.7839 14.6843C15.0339 13.6288 14.6589 12.3649 14.6589 10.8927C14.6589 8.67044 15.4575 6.80238 17.0547 5.28849C18.652 3.7746 20.777 3.01766 23.4297 3.01766C26.0964 3.01766 28.2422 3.79544 29.8672 5.35099C31.4922 6.89266 32.3047 8.7746 32.3047 10.9968C32.3047 12.4135 31.9297 13.6496 31.1797 14.7052C30.4436 15.7468 29.3186 16.5524 27.8047 17.1218C29.6797 17.7329 31.1033 18.719 32.0756 20.0802C33.0617 21.4413 33.5547 23.0663 33.5547 24.9552C33.5547 27.5663 32.6311 29.7607 30.7839 31.5385C28.9367 33.3163 26.5061 34.2052 23.4922 34.2052C20.4783 34.2052 18.0478 33.3163 16.2006 31.5385C14.3533 29.7468 13.4297 27.5177 13.4297 24.851C13.4297 22.8649 13.9297 21.2052 14.9297 19.8718C15.9436 18.5246 17.3811 17.6079 19.2422 17.1218ZM18.4922 10.7677C18.4922 12.2121 18.9575 13.3927 19.8881 14.3093C20.8186 15.226 22.027 15.6843 23.5131 15.6843C24.9575 15.6843 26.1381 15.2329 27.0547 14.3302C27.9853 13.4135 28.4506 12.2954 28.4506 10.976C28.4506 9.60099 27.9714 8.44821 27.0131 7.51766C26.0686 6.57321 24.8881 6.10099 23.4714 6.10099C22.0408 6.10099 20.8533 6.55933 19.9089 7.47599C18.9645 8.39266 18.4922 9.48988 18.4922 10.7677ZM17.2839 24.8718C17.2839 25.9413 17.5339 26.976 18.0339 27.976C18.5478 28.976 19.3047 29.7538 20.3047 30.3093C21.3047 30.851 22.3811 31.1218 23.5339 31.1218C25.3256 31.1218 26.8047 30.5454 27.9714 29.3927C29.1381 28.2399 29.7214 26.7746 29.7214 24.9968C29.7214 23.1913 29.1172 21.6982 27.9089 20.5177C26.7145 19.3371 25.2145 18.7468 23.4089 18.7468C21.645 18.7468 20.1797 19.3302 19.0131 20.4968C17.8603 21.6635 17.2839 23.1218 17.2839 24.8718Z" fill="#DF0000"/>
<path d="M31.1097 43.0432C23.87 43.0432 22.9033 50.3078 22.9033 50.3078C22.9033 50.3078 21.9367 43.0432 14.697 43.0432C9.62944 43.0432 5.04407 46.3005 5.04407 52.4452C5.04407 60.5643 19.7314 68.729 22.9033 80.651C25.9216 68.739 40.7626 60.5643 40.7626 52.4452C40.7626 46.3005 36.1773 43.0432 31.1097 43.0432Z" fill="#DF0000"/>
<path d="M204.215 304.916C205.771 305.485 206.924 306.298 207.674 307.354C208.424 308.409 208.799 309.673 208.799 311.145C208.799 313.367 208 315.235 206.403 316.749C204.805 318.263 202.68 319.02 200.028 319.02C197.361 319.02 195.215 318.242 193.59 316.687C191.965 315.145 191.153 313.263 191.153 311.041C191.153 309.624 191.528 308.388 192.278 307.333C193.014 306.291 194.139 305.485 195.653 304.916C193.778 304.305 192.354 303.319 191.382 301.958C190.396 300.597 189.903 298.972 189.903 297.083C189.903 294.472 190.826 292.277 192.674 290.499C194.521 288.722 196.951 287.833 199.965 287.833C202.979 287.833 205.41 288.722 207.257 290.499C209.104 292.291 210.028 294.52 210.028 297.187C210.028 299.173 209.528 300.833 208.528 302.166C207.514 303.513 206.076 304.43 204.215 304.916ZM204.965 311.27C204.965 309.826 204.5 308.645 203.569 307.729C202.639 306.812 201.43 306.354 199.944 306.354C198.5 306.354 197.319 306.805 196.403 307.708C195.472 308.624 195.007 309.742 195.007 311.062C195.007 312.437 195.486 313.59 196.444 314.52C197.389 315.465 198.569 315.937 199.986 315.937C201.417 315.937 202.604 315.479 203.549 314.562C204.493 313.645 204.965 312.548 204.965 311.27ZM206.174 297.166C206.174 296.097 205.924 295.062 205.424 294.062C204.91 293.062 204.153 292.284 203.153 291.729C202.153 291.187 201.076 290.916 199.924 290.916C198.132 290.916 196.653 291.492 195.486 292.645C194.319 293.798 193.736 295.263 193.736 297.041C193.736 298.847 194.34 300.34 195.549 301.52C196.743 302.701 198.243 303.291 200.049 303.291C201.812 303.291 203.278 302.708 204.444 301.541C205.597 300.374 206.174 298.916 206.174 297.166Z" fill="#DF0000"/>
<path d="M192.002 278.995C199.241 278.995 200.208 271.73 200.208 271.73C200.208 271.73 201.175 278.995 208.414 278.995C213.482 278.995 218.067 275.737 218.067 269.593C218.067 261.474 203.38 253.309 200.208 241.387C197.19 253.299 182.349 261.474 182.349 269.593C182.349 275.737 186.934 278.995 192.002 278.995Z" fill="#DF0000"/>
<path d="M86.3039 10.9277C74.2875 10.9277 72.683 22.9854 72.683 22.9854C72.683 22.9854 71.0786 10.9277 59.0622 10.9277C50.6511 10.9277 43.0403 16.3341 43.0403 26.5331C43.0403 40.0091 67.4183 53.5608 72.683 73.349C77.6927 53.5774 102.326 40.0091 102.326 26.5331C102.326 16.3341 94.715 10.9277 86.3039 10.9277Z" fill="#DF0000"/>
<path d="M59.0622 308.552C71.0786 308.552 72.6831 296.495 72.6831 296.495C72.6831 296.495 74.2875 308.552 86.3039 308.552C94.715 308.552 102.326 303.146 102.326 292.947C102.326 279.471 77.9478 265.919 72.6831 246.131C67.6734 265.903 43.0403 279.471 43.0403 292.947C43.0403 303.146 50.6511 308.552 59.0622 308.552Z" fill="#DF0000"/>
<path d="M86.3039 135.862C74.2875 135.862 72.683 147.92 72.683 147.92C72.683 147.92 71.0786 135.862 59.0622 135.862C50.6511 135.862 43.0403 141.268 43.0403 151.467C43.0403 164.943 67.4183 178.495 72.683 198.283C77.6927 178.512 102.326 164.943 102.326 151.467C102.326 141.268 94.715 135.862 86.3039 135.862Z" fill="#DF0000"/>
<path d="M163.288 10.4863C151.272 10.4863 149.667 22.544 149.667 22.544C149.667 22.544 148.063 10.4863 136.046 10.4863C127.635 10.4863 120.024 15.8927 120.024 26.0917C120.024 39.5677 144.402 53.1194 149.667 72.9076C154.677 53.136 179.31 39.5677 179.31 26.0917C179.31 15.8927 171.699 10.4863 163.288 10.4863Z" fill="#DF0000"/>
<path d="M136.046 310.244C148.063 310.244 149.667 298.186 149.667 298.186C149.667 298.186 151.272 310.244 163.288 310.244C171.699 310.244 179.31 304.838 179.31 294.639C179.31 281.163 154.932 267.611 149.667 247.823C144.658 267.594 120.024 281.163 120.024 294.639C120.024 304.838 127.635 310.244 136.046 310.244Z" fill="#DF0000"/>
<path d="M163.288 135.421C151.272 135.421 149.667 147.479 149.667 147.479C149.667 147.479 148.063 135.421 136.046 135.421C127.635 135.421 120.024 140.827 120.024 151.026C120.024 164.502 144.402 178.054 149.667 197.842C154.677 178.071 179.31 164.502 179.31 151.026C179.31 140.827 171.699 135.421 163.288 135.421Z" fill="#DF0000"/>
<path d="M125.192 71.0627C113.175 71.0627 111.571 83.1205 111.571 83.1205C111.571 83.1205 109.967 71.0627 97.9501 71.0627C89.539 71.0627 81.9282 76.4691 81.9282 86.6681C81.9282 100.144 106.306 113.696 111.571 133.484C116.581 113.712 141.214 100.144 141.214 86.6681C141.214 76.4691 133.603 71.0627 125.192 71.0627Z" fill="#DF0000"/>
<path d="M97.3304 248.154C109.347 248.154 110.951 236.097 110.951 236.097C110.951 236.097 112.556 248.154 124.572 248.154C132.983 248.154 140.594 242.748 140.594 232.549C140.594 219.073 116.216 205.521 110.951 185.733C105.942 205.505 81.3085 219.073 81.3085 232.549C81.3085 242.748 88.9193 248.154 97.3304 248.154Z" fill="#DF0000"/>
</g>
<defs>
<clipPath id="clip0_7_1706">
<rect width="222.783" height="323.556" fill="white"/>
</clipPath>
</defs>
</svg>
