<svg width="40" height="40" viewBox="0 0 40 40" fill="none" xmlns="http://www.w3.org/2000/svg">
<path d="M23.4089 18.6358C23.4089 18.6358 27.1589 15.6358 27.1589 11.4768C27.1589 9.04211 24.9974 5 20 5C15.0026 5 12.8411 9.04368 12.8411 11.4768C12.8411 15.6358 16.5911 18.6358 16.5911 18.6358C12.4258 15.3911 5 17.6063 5 24.0911C5 27.3374 7.65263 30.9089 11.8179 30.9089C16.8153 30.9089 18.9768 25.4537 18.9768 25.4537C18.9768 25.4537 19.6116 31.6716 15.9089 35H24.0911C20.3884 31.6732 21.0232 25.4537 21.0232 25.4537C21.0232 25.4537 23.1847 30.9089 28.1821 30.9089C32.3489 30.9089 35 27.3358 35 24.0911C35 17.6063 27.5742 15.3911 23.4089 18.6358Z" fill="white"/>
</svg>
