<svg width="40" height="40" viewBox="0 0 40 40" fill="none" xmlns="http://www.w3.org/2000/svg">
<path d="M24.9917 12.1527C21.4275 7.33086 19.5312 2.43048 19.5312 2.43048C19.5312 2.43048 17.635 7.33086 14.0708 12.1527C10.5049 16.9728 6.0625 20.1082 6.0625 20.1082C6.0625 20.1082 10.5049 23.2419 14.0708 28.0654C17.635 32.8855 19.5312 37.7859 19.5312 37.7859C19.5312 37.7859 21.4275 32.8855 24.9917 28.0654C28.5575 23.2419 33 20.1082 33 20.1082C33 20.1082 28.5575 16.9728 24.9917 12.1527Z" fill="#DF0000"/>
<g filter="url(#filter0_f_453_2904)">
<path d="M18.1352 7.95511C18.1352 7.95511 19.8243 14.7926 17.9744 17.1817C15.895 19.8671 8.24345 19.6112 8.24345 19.6112C8.24345 19.6112 12.9918 16.9833 14.7172 14.9268C16.367 12.9607 18.1352 7.95511 18.1352 7.95511Z" fill="url(#paint0_radial_453_2904)"/>
</g>
<defs>
<filter id="filter0_f_453_2904" x="5.14586" y="4.85759" width="16.7923" height="17.8577" filterUnits="userSpaceOnUse" color-interpolation-filters="sRGB">
<feFlood flood-opacity="0" result="BackgroundImageFix"/>
<feBlend mode="normal" in="SourceGraphic" in2="BackgroundImageFix" result="shape"/>
<feGaussianBlur stdDeviation="1.54877" result="effect1_foregroundBlur_453_2904"/>
</filter>
<radialGradient id="paint0_radial_453_2904" cx="0" cy="0" r="1" gradientUnits="userSpaceOnUse" gradientTransform="translate(15.9369 16.107) rotate(139.627) scale(7.87996 4.69431)">
<stop stop-color="white" stop-opacity="0.435115"/>
<stop offset="1" stop-opacity="0"/>
</radialGradient>
</defs>
</svg>
