<svg width="223" height="324" viewBox="0 0 223 324" fill="none" xmlns="http://www.w3.org/2000/svg">
<g clip-path="url(#clip0_7_1287)">
<path d="M222.449 314.064C222.449 319.1 218.333 323.223 213.288 323.223H9.48113C4.44793 323.223 0.333344 319.1 0.333344 314.064V9.49365C0.333344 4.45719 4.44793 0.333496 9.48113 0.333496H213.288C218.333 0.333496 222.449 4.45719 222.449 9.49365V314.064Z" fill="white" stroke="black" stroke-width="0.666667"/>
<path d="M8.88489 33.0645L20.6141 2.52279H24.9682L37.4682 33.0645H32.8641L29.3016 23.8145H16.5307L13.1766 33.0645H8.88489ZM17.6974 20.5228H28.0516L24.8641 12.0645C23.8918 9.49501 23.1696 7.3839 22.6974 5.73112C22.3085 7.68945 21.7599 9.6339 21.0516 11.5645L17.6974 20.5228Z" fill="black"/>
<path d="M128.754 151.254C128.754 151.254 147.666 136.125 147.666 115.151C147.666 102.872 136.765 82.4878 111.563 82.4878C86.3608 82.4878 75.4598 102.88 75.4598 115.151C75.4598 136.125 94.3713 151.254 94.3713 151.254C73.3656 134.89 35.917 146.062 35.917 178.765C35.917 195.136 49.2944 213.148 70.3 213.148C95.502 213.148 106.403 185.637 106.403 185.637C106.403 185.637 109.604 216.994 90.9314 233.779H132.194C113.522 217.002 116.723 185.637 116.723 185.637C116.723 185.637 127.624 213.148 152.826 213.148C173.839 213.148 187.209 195.128 187.209 178.765C187.209 146.062 149.76 134.89 128.754 151.254Z" fill="url(#paint0_radial_7_1287)"/>
<g filter="url(#filter0_f_7_1287)">
<path d="M37.3215 191.911C37.3215 191.911 34.8621 160.406 44.2897 151.147C54.8866 140.738 86.9695 147.355 86.9695 147.355C86.9695 147.355 65.16 155.596 56.4839 163.471C48.1887 171 37.3215 191.911 37.3215 191.911Z" fill="url(#paint1_radial_7_1287)"/>
</g>
<g filter="url(#filter1_f_7_1287)">
<path d="M79.8155 131.188C79.8155 131.188 77.356 99.6832 86.7836 90.4235C97.3806 80.0152 129.463 86.6315 129.463 86.6315C129.463 86.6315 107.654 94.8727 98.9779 102.748C90.6826 110.277 79.8155 131.188 79.8155 131.188Z" fill="url(#paint2_radial_7_1287)"/>
</g>
<g filter="url(#filter2_f_7_1287)">
<path d="M109.296 188.01C109.296 188.01 128.736 150.753 144.901 146.236C163.071 141.158 191.492 168.988 191.492 168.988C191.492 168.988 163.287 164.504 148.862 167.929C135.07 171.203 109.296 188.01 109.296 188.01Z" fill="url(#paint3_radial_7_1287)"/>
</g>
<path d="M19.6212 55.5571V257.383H202.997V55.5571H19.6212ZM111.502 82.3905C136.704 82.3905 147.612 102.778 147.612 115.056C147.612 136.03 128.698 151.157 128.698 151.157C149.704 134.794 187.149 145.966 187.149 178.669C187.149 195.033 173.779 213.053 152.766 213.053C127.564 213.053 116.664 185.541 116.664 185.541C116.664 185.541 113.461 216.907 132.134 233.684H90.8704C109.543 216.899 106.349 185.541 106.349 185.541C106.349 185.541 95.4492 213.053 70.2472 213.053C49.2416 213.053 35.8638 195.041 35.8638 178.669C35.8638 145.966 73.3092 134.794 94.3148 151.157C94.3148 151.157 75.4009 136.03 75.4009 115.056C75.4009 102.785 86.3002 82.3905 111.502 82.3905Z" fill="#FFFEFF"/>
<path d="M27.5879 58.3197C27.5879 58.3197 32.2924 54.556 32.2924 49.3384C32.2924 46.2839 29.5806 41.2129 23.3112 41.2129C17.0417 41.2129 14.3299 46.2859 14.3299 49.3384C14.3299 54.556 19.0345 58.3197 19.0345 58.3197C13.8089 54.249 4.49292 57.0281 4.49292 65.1636C4.49292 69.2362 7.82078 73.7169 13.0463 73.7169C19.3158 73.7169 22.0276 66.873 22.0276 66.873C22.0276 66.873 22.8239 74.6737 18.1787 78.8494H28.4436C23.7985 74.6757 24.5948 66.873 24.5948 66.873C24.5948 66.873 27.3066 73.7169 33.576 73.7169C38.8035 73.7169 42.1294 69.2342 42.1294 65.1636C42.1294 57.0281 32.8134 54.249 27.5879 58.3197Z" fill="black"/>
<path d="M214.014 289.622L202.285 320.164H197.931L185.431 289.622H190.035L193.598 298.872H206.369L209.723 289.622H214.014ZM205.202 302.164H194.848L198.035 310.622C199.008 313.192 199.73 315.303 200.202 316.955C200.591 314.997 201.139 313.053 201.848 311.122L205.202 302.164Z" fill="black"/>
<path d="M195.311 264.987C195.311 264.987 190.607 268.751 190.607 273.968C190.607 277.023 193.319 282.094 199.588 282.094C205.858 282.094 208.569 277.021 208.569 273.968C208.569 268.751 203.865 264.987 203.865 264.987C209.09 269.058 218.406 266.279 218.406 258.143C218.406 254.07 215.079 249.59 209.853 249.59C203.584 249.59 200.872 256.434 200.872 256.434C200.872 256.434 200.075 248.633 204.721 244.457H194.456C199.101 248.631 198.305 256.434 198.305 256.434C198.305 256.434 195.593 249.59 189.323 249.59C184.096 249.59 180.77 254.072 180.77 258.143C180.77 266.279 190.086 269.058 195.311 264.987Z" fill="black"/>
</g>
<defs>
<filter id="filter0_f_7_1287" x="30.9828" y="139.232" width="62.0362" height="58.7285" filterUnits="userSpaceOnUse" color-interpolation-filters="sRGB">
<feFlood flood-opacity="0" result="BackgroundImageFix"/>
<feBlend mode="normal" in="SourceGraphic" in2="BackgroundImageFix" result="shape"/>
<feGaussianBlur stdDeviation="3.02479" result="effect1_foregroundBlur_7_1287"/>
</filter>
<filter id="filter1_f_7_1287" x="73.4768" y="78.509" width="62.0362" height="58.7285" filterUnits="userSpaceOnUse" color-interpolation-filters="sRGB">
<feFlood flood-opacity="0" result="BackgroundImageFix"/>
<feBlend mode="normal" in="SourceGraphic" in2="BackgroundImageFix" result="shape"/>
<feGaussianBlur stdDeviation="3.02479" result="effect1_foregroundBlur_7_1287"/>
</filter>
<filter id="filter2_f_7_1287" x="101.624" y="137.944" width="97.5411" height="57.7387" filterUnits="userSpaceOnUse" color-interpolation-filters="sRGB">
<feFlood flood-opacity="0" result="BackgroundImageFix"/>
<feBlend mode="normal" in="SourceGraphic" in2="BackgroundImageFix" result="shape"/>
<feGaussianBlur stdDeviation="3.83648" result="effect1_foregroundBlur_7_1287"/>
</filter>
<radialGradient id="paint0_radial_7_1287" cx="0" cy="0" r="1" gradientUnits="userSpaceOnUse" gradientTransform="translate(112.348 114.941) rotate(179.329) scale(118.055 173.313)">
<stop/>
<stop offset="1" stop-opacity="0.656489"/>
</radialGradient>
<radialGradient id="paint1_radial_7_1287" cx="0" cy="0" r="1" gradientUnits="userSpaceOnUse" gradientTransform="translate(52.1465 157.368) rotate(-32.463) scale(34.1201 20.7798)">
<stop stop-color="white" stop-opacity="0.534351"/>
<stop offset="1" stop-opacity="0"/>
</radialGradient>
<radialGradient id="paint2_radial_7_1287" cx="0" cy="0" r="1" gradientUnits="userSpaceOnUse" gradientTransform="translate(94.6405 96.645) rotate(-32.463) scale(34.1201 20.7798)">
<stop stop-color="white" stop-opacity="0.519084"/>
<stop offset="1" stop-opacity="0"/>
</radialGradient>
<radialGradient id="paint3_radial_7_1287" cx="0" cy="0" r="1" gradientUnits="userSpaceOnUse" gradientTransform="translate(155.537 141.644) rotate(-3.38256) scale(42.4891 26.8441)">
<stop stop-color="white" stop-opacity="0.70229"/>
<stop offset="1" stop-opacity="0"/>
</radialGradient>
<clipPath id="clip0_7_1287">
<rect width="222.783" height="323.556" fill="white"/>
</clipPath>
</defs>
</svg>
