<svg width="30" height="30" viewBox="0 0 30 30" fill="none" xmlns="http://www.w3.org/2000/svg">
<path d="M15.278 20.3512L15.278 20.3512L15.2816 20.3456L20.6537 12.0517C20.6539 12.0514 20.654 12.0511 20.6542 12.0509C20.8454 11.7576 21.0455 11.3478 21.0455 10.9271C21.0455 9.94365 20.1788 9.33413 19.349 9.33413C18.7229 9.33413 18.24 9.70218 17.9055 10.2178L17.9055 10.2178L17.9012 10.2247L13.6391 17.0355L11.9509 14.9184L11.9509 14.9184L11.948 14.9148C11.7685 14.6939 11.5686 14.5133 11.3327 14.39C11.0927 14.2646 10.8418 14.2124 10.582 14.2124C9.65506 14.2124 8.93145 14.9605 8.93145 15.8744C8.93145 16.3161 9.08543 16.6996 9.37467 17.0611L9.3746 17.0612L9.38056 17.0684L12.1515 20.4027C12.5662 20.9132 13.0659 21.2181 13.7229 21.2181C14.3684 21.2181 14.9196 20.8887 15.278 20.3512ZM15 26.5C8.66061 26.5 3.5 21.3394 3.5 15C3.5 8.64942 8.6603 3.5 15 3.5C21.3509 3.5 26.5 8.64911 26.5 15C26.5 21.3397 21.3506 26.5 15 26.5Z" fill="currentColor" stroke="currentColor"/>
</svg>
