<svg width="32" height="32" viewBox="0 0 32 32" fill="none" xmlns="http://www.w3.org/2000/svg">
<path d="M11.0617 27.4286C10.7294 27.4286 10.473 27.3204 10.2924 27.1041C10.1191 26.8949 10.0324 26.6137 10.0324 26.2603V23.1233H9.58813C8.54073 23.1233 7.6414 22.9249 6.89016 22.5283C6.14614 22.1245 5.57188 21.5475 5.16736 20.7975C4.77007 20.0403 4.57143 19.1244 4.57143 18.0499V9.65561C4.57143 8.58109 4.77007 7.66882 5.16736 6.91882C5.56465 6.1616 6.13892 5.58106 6.89016 5.17722C7.64863 4.77337 8.57323 4.57144 9.66398 4.57144H23.4789C24.5696 4.57144 25.4906 4.77337 26.2419 5.17722C27.0003 5.58106 27.5782 6.1616 27.9755 6.91882C28.3728 7.66882 28.5714 8.58109 28.5714 9.65561V18.0499C28.5714 19.1244 28.3728 20.0403 27.9755 20.7975C27.5782 21.5475 27.0003 22.1245 26.2419 22.5283C25.4906 22.9249 24.5696 23.1233 23.4789 23.1233H16.371L12.3945 26.7146C12.12 26.967 11.8852 27.1473 11.6902 27.2555C11.4951 27.3709 11.2856 27.4286 11.0617 27.4286ZM14.7349 19.6184H18.9606C19.2062 19.6184 19.4084 19.5427 19.5674 19.3913C19.7263 19.2398 19.8057 19.0451 19.8057 18.8071C19.8057 18.5764 19.7263 18.3852 19.5674 18.2338C19.4084 18.0751 19.2062 17.9958 18.9606 17.9958H17.8121V13.0847C17.8121 12.7746 17.7326 12.5222 17.5737 12.3275C17.422 12.1328 17.1981 12.0354 16.9019 12.0354H14.9191C14.6879 12.0354 14.4893 12.1148 14.3231 12.2734C14.1642 12.4321 14.0847 12.6232 14.0847 12.8467C14.0847 13.0847 14.1642 13.2794 14.3231 13.4309C14.4893 13.5823 14.6879 13.658 14.9191 13.658H15.9701V17.9958H14.7349C14.5037 17.9958 14.3051 18.0751 14.1389 18.2338C13.98 18.3852 13.9005 18.5764 13.9005 18.8071C13.9005 19.0451 13.98 19.2398 14.1389 19.3913C14.3051 19.5427 14.5037 19.6184 14.7349 19.6184ZM16.5118 10.4236C16.9163 10.4236 17.2558 10.283 17.5303 10.0018C17.8048 9.72052 17.9421 9.38518 17.9421 8.99575C17.9421 8.5919 17.8048 8.25296 17.5303 7.97892C17.2558 7.69767 16.9163 7.55704 16.5118 7.55704C16.1218 7.55704 15.7859 7.69767 15.5042 7.97892C15.2224 8.25296 15.0816 8.5919 15.0816 8.99575C15.0816 9.38518 15.2224 9.72052 15.5042 10.0018C15.7859 10.283 16.1218 10.4236 16.5118 10.4236Z" fill="currentColor"/>
</svg>
