<svg width="32" height="32" viewBox="0 0 32 32" fill="none" xmlns="http://www.w3.org/2000/svg">
<path d="M7.41321 24.2863V17.9058H15.022V27H10.1987C9.3248 27 8.64209 26.7687 8.15054 26.306C7.65899 25.8434 7.41321 25.1701 7.41321 24.2863ZM16.9575 27V17.9058H24.5765V24.2863C24.5765 25.1701 24.3308 25.8434 23.8392 26.306C23.3545 26.7687 22.6752 27 21.8013 27H16.9575ZM6 14.9746V12.6648C6 12.0295 6.17409 11.5634 6.52227 11.2665C6.87728 10.9696 7.35859 10.8211 7.96621 10.8211H10.0041C9.7037 10.5311 9.46817 10.1927 9.29749 9.80603C9.13364 9.41933 9.05172 8.99812 9.05172 8.54237C9.05172 7.85185 9.21557 7.24074 9.54327 6.70904C9.87097 6.17734 10.3079 5.75957 10.8541 5.45574C11.4071 5.15191 12.0249 5 12.7076 5C13.4654 5 14.1379 5.20716 14.725 5.62147C15.319 6.03578 15.7423 6.61927 15.9949 7.37194C16.2475 6.61927 16.6708 6.03578 17.2647 5.62147C17.8587 5.20716 18.5311 5 19.2821 5C19.9648 5 20.5793 5.15191 21.1254 5.45574C21.6784 5.75957 22.1188 6.17734 22.4465 6.70904C22.7742 7.24074 22.938 7.85185 22.938 8.54237C22.938 8.99812 22.8561 9.41933 22.6923 9.80603C22.5284 10.1927 22.2963 10.5311 21.9959 10.8211H24.0338C24.6619 10.8211 25.1466 10.9696 25.488 11.2665C25.8293 11.5634 26 12.0295 26 12.6648V14.9746C26 15.5546 25.843 15.9793 25.5289 16.2486C25.2149 16.511 24.7745 16.6422 24.2079 16.6422H16.9575V10.8211H18.5038C19.289 10.8211 19.8966 10.6139 20.3267 10.1996C20.7636 9.78531 20.9821 9.29504 20.9821 8.72881C20.9821 8.1764 20.808 7.74482 20.4598 7.43409C20.1116 7.11645 19.661 6.95763 19.108 6.95763C18.5209 6.95763 18.0157 7.17859 17.5924 7.62053C17.1691 8.05556 16.9575 8.63905 16.9575 9.371V10.8211H15.022V9.371C15.022 8.63905 14.8138 8.05556 14.3973 7.62053C13.9809 7.17859 13.4757 6.95763 12.8817 6.95763C12.3287 6.95763 11.8781 7.11645 11.53 7.43409C11.1818 7.74482 11.0077 8.1764 11.0077 8.72881C11.0077 9.29504 11.2227 9.78531 11.6528 10.1996C12.0898 10.6139 12.7008 10.8211 13.4859 10.8211H15.022V16.6422H7.79211C7.22547 16.6422 6.78512 16.511 6.47107 16.2486C6.15702 15.9793 6 15.5546 6 14.9746Z" fill="currentColor"/>
</svg>
