<svg width="26" height="26" viewBox="0 0 26 26" fill="none" xmlns="http://www.w3.org/2000/svg">
<path d="M4.99037 25.7194C4.40711 25.2648 4.29274 24.4992 4.61296 23.5063L6.93458 16.2929L1.01046 11.8549C0.198469 11.2448 -0.1675 10.5509 0.0726669 9.82122C0.312834 9.10347 0.976152 8.75656 1.97113 8.75656H9.24475L11.452 1.55513C11.7608 0.538313 12.2754 0 13.0074 0C13.7393 0 14.2425 0.538313 14.5513 1.55513L16.77 8.75656H24.0207C25.0386 8.75656 25.6905 9.10347 25.9306 9.82122C26.1594 10.5509 25.8163 11.2448 24.9928 11.8549L19.0687 16.2929L21.3903 23.5063C21.7106 24.4992 21.5962 25.2648 21.0129 25.7194C20.4182 26.1979 19.6977 26.0424 18.8743 25.4203L13.0074 20.9105L7.129 25.4203C6.30557 26.0424 5.58507 26.1979 4.99037 25.7194Z" fill="currentColor"/>
</svg>
