<svg width="47" height="13" viewBox="0 0 47 13" fill="none" xmlns="http://www.w3.org/2000/svg">
<g filter="url(#filter0_b_28_4866)">
<path fill-rule="evenodd" clip-rule="evenodd" d="M0 0.00316996C1.71249 0.00316996 3.42448 -0.00533022 5.13697 0.0131702C6.77598 0.0311706 8.61044 0.0566711 10.2055 0.658184C11.9284 1.3082 13.0691 2.44472 14.2168 3.78225C15.043 4.74427 16.666 6.79681 17.4563 7.78784C18.1031 8.60035 19.3692 10.2064 20.0605 10.9834C20.9308 11.9609 22.0064 12.9999 23.5005 12.9999C24.9946 12.9999 26.0697 11.9609 26.9395 10.9844C27.6308 10.2079 28.8969 8.60085 29.5442 7.78884C30.3335 6.79781 31.9565 4.74527 32.7832 3.78325C33.9329 2.44572 35.0716 1.3092 36.794 0.659184C38.3896 0.0591711 40.2245 0.0321706 41.8625 0.0141702C43.5755 -0.0043302 45.2875 0.00416998 47 0.00416998" fill="currentColor" fill-opacity="0.9"/>
<path fill-rule="evenodd" clip-rule="evenodd" d="M0 0.00316996C1.71249 0.00316996 3.42448 -0.00533022 5.13697 0.0131702C6.77598 0.0311706 8.61044 0.0566711 10.2055 0.658184C11.9284 1.3082 13.0691 2.44472 14.2168 3.78225C15.043 4.74427 16.666 6.79681 17.4563 7.78784C18.1031 8.60035 19.3692 10.2064 20.0605 10.9834C20.9308 11.9609 22.0064 12.9999 23.5005 12.9999C24.9946 12.9999 26.0697 11.9609 26.9395 10.9844C27.6308 10.2079 28.8969 8.60085 29.5442 7.78884C30.3335 6.79781 31.9565 4.74527 32.7832 3.78325C33.9329 2.44572 35.0716 1.3092 36.794 0.659184C38.3896 0.0591711 40.2245 0.0321706 41.8625 0.0141702C43.5755 -0.0043302 45.2875 0.00416998 47 0.00416998" fill="currentColor" style="mix-blend-mode:overlay"/>
</g>
<defs>
<filter id="filter0_b_28_4866" x="-130" y="-129.999" width="307" height="272.999" filterUnits="userSpaceOnUse" color-interpolation-filters="sRGB">
<feFlood flood-opacity="0" result="BackgroundImageFix"/>
<feGaussianBlur in="BackgroundImageFix" stdDeviation="65"/>
<feComposite in2="SourceAlpha" operator="in" result="effect1_backgroundBlur_28_4866"/>
<feBlend mode="normal" in="SourceGraphic" in2="effect1_backgroundBlur_28_4866" result="shape"/>
</filter>
</defs>
</svg>
